<svg id="Режим_изоляции" xmlns="http://www.w3.org/2000/svg" viewBox="0 0 286.9 316.8"><style>.st0{fill:#fff}</style><path class="st0" d="M38.6 80.1c-.9-4-2-7.7-3.5-11-.8-1.7-1.4-3.2-2.2-4.7s-1.6-2.9-2.5-4.3c-3.6-5.4-7.5-9.7-11.6-13.1-2-1.7-4-3.1-6-4.3-1.9-1.2-3.7-2.2-5.3-2.9-3.2-1.5-5.8-2.1-6.9-2 0 0-.3 1.2-.5 3.2-.1 1-.2 2.2-.2 3.5s.1 2.8.2 4.3c.3 3.1 1 6.4 2.4 9.6 1.5 3.2 3.6 6.1 6.7 8.4 7.3 5.4 13.2 5.7 17.9 6.3 4.8.4 8.5 1.2 11.5 7z"/><path class="st0" d="M38.6 80.1c-.9-4-1.2-7.9-1.2-11.4 0-1.8.2-3.5.4-5.2s.5-3.3.9-4.8c1.4-6.1 4.4-11.2 7.4-15.1 1.5-2 3.1-3.7 4.7-5.1 1.6-1.5 3.2-2.7 4.7-3.6 2.9-1.9 5.3-2.9 6.4-3 0 0 .5 1 1 2.5.3.8.5 1.7.8 2.8.3 1.1.6 2.2.8 3.5.4 2.5.5 5.4 0 8.3-.5 2.9-1.6 5.9-3.8 8.7-5.3 6.7-10.4 9.2-14.6 11.5-4.1 2.2-7.1 4.3-7.5 10.9zM47.9 112.9c-.7-2-1.4-3.8-2.2-5.6-.8-1.7-1.5-3.4-2.4-5-1.7-3.2-3.6-6-5.7-8.5-1.9-2.5-4.1-4.8-6.2-6.7-2.1-2-4.4-3.7-6.5-5.1-8.5-6-16.8-8-18.9-7.6 0 0-.5 4.9.7 11 .1.8.3 1.5.5 2.3s.5 1.6.8 2.4c.6 1.6 1.3 3.2 2.1 4.7 1.7 3 4 5.8 7.4 7.7 7.9 4.6 13.7 4.3 18.4 4.5 4.7.1 8.4.5 12 5.9z"/><path class="st0" d="M47.9 112.9c-.7-2-1.2-3.9-1.6-5.7-.5-1.9-.6-3.7-.8-5.5-.3-3.6-.2-6.9.2-10 .5-3.1 1.3-6 2.3-8.7 1-2.6 2.2-5 3.6-7.1 5.5-8.5 12.5-12.7 14.6-13.2 0 0 2.3 3.6 3.5 8.6.2.6.3 1.3.4 1.9.1.7.3 1.3.3 2 .2 1.4.2 2.8.1 4.3-.2 2.9-1.2 6-3 9-4.5 7.1-9.4 10.2-13.4 12.8-3.8 2.7-6.5 5.1-6.2 11.6zM60.6 144.6c-.9-1.8-1.8-3.6-2.7-5.3s-1.9-3.3-3-4.7c-2.1-2.9-4.2-5.6-6.5-7.9-2.2-2.3-4.6-4.3-7-6-2.3-1.8-4.7-3.2-7-4.5-9.3-5-17.5-6.2-19.6-5.6 0 0 0 1.2.2 3.2.1 2 .7 4.7 1.6 7.7.5 1.5 1 3 1.7 4.5s1.5 3.1 2.6 4.5c2.1 2.8 4.8 5.3 8.2 7 4.1 1.9 7.7 2.6 10.8 2.8s5.7-.1 8.1-.3 4.5-.3 6.5.3c1 .3 2 .8 3 1.5L59 143c.5.4 1.1 1 1.6 1.6zM60.6 144.6c-.9-1.8-1.6-3.7-2.2-5.6-.6-1.8-1-3.6-1.4-5.4-.8-3.5-.9-6.9-.7-10 .2-3.2.6-6.1 1.4-8.8.8-2.7 1.8-5.2 2.9-7.5 4.4-8.9 11.2-13.9 13.2-14.5 0 0 .6.8 1.5 2.3.8 1.5 2 3.4 2.8 5.8.4 1.2.8 2.5 1.1 3.8.3 1.4.4 2.8.5 4.2.1 2.9-.4 6-2 9.2-2 3.8-4 6.6-6 8.8-2.1 2.2-4.1 3.8-5.9 5.4-1.8 1.5-3.3 3-4.3 4.9-.5.9-.8 2-1 3.2-.1.6-.1 1.3-.1 2 0 .6.1 1.4.2 2.2zM76.8 174.6c-2.1-3.6-4.5-6.6-6.8-9.3-2.3-2.8-4.8-5.1-7.3-7.1-.6-.5-1.3-1-1.9-1.5-.6-.5-1.2-.9-1.9-1.4-1.2-.9-2.5-1.7-3.8-2.4-2.5-1.5-5-2.7-7.5-3.7-9.6-4-18.1-4.4-20.1-3.5 0 0 .5 5 2.9 10.7 1.3 2.8 3 5.9 5.3 8.5 1.2 1.3 2.4 2.6 3.9 3.6s3.2 1.9 5 2.5c4.4 1.5 7.9 1.8 11 1.7 1.5-.1 2.9-.2 4.2-.5 1.3-.2 2.6-.5 3.7-.7 4.9-.9 8.6-1.3 13.3 3.1z"/><path class="st0" d="M76.8 174.6c-2.1-3.6-3.8-7-4.8-10.4s-1.6-6.8-1.9-9.9c-.1-.8-.1-1.6-.1-2.3 0-.8 0-1.5.1-2.3.1-1.5.3-2.9.5-4.3.5-2.8 1.2-5.3 2-7.7 3.6-9.4 9.7-15 11.7-15.8 0 0 2.9 3 5 7.6 1.2 2.2 2.2 4.9 2.5 7.8.2 1.4.2 3 .1 4.5s-.5 3.1-1.1 4.8c-1.5 3.9-3.2 6.9-5.1 9.4-.9 1.2-1.8 2.3-2.7 3.3-.9 1-1.7 1.9-2.5 2.7-3.3 3.4-5.5 6.3-3.7 12.6zM96.5 202.5c-1.3-1.6-2.6-3.1-4-4.5-1.3-1.4-2.6-2.7-3.9-3.9s-2.7-2.3-4.1-3.3l-2.1-1.5c-.7-.5-1.3-.9-2-1.4-5.3-3.5-11-5.7-16-7.2-5-1.4-9.7-2-13.3-2.1-3.7-.1-6.2.3-7.1.9 0 0 .1.3.2.9.1.6.4 1.3.7 2.3.7 1.9 1.8 4.5 3.3 7.2.8 1.4 1.7 2.8 2.7 4.1 1.1 1.3 2.3 2.6 3.6 3.8 2.7 2.3 5.8 4.3 9.6 5.1 9.1 1.8 14.5-.4 19-1.9 2.2-.7 4.3-1.3 6.4-1.2 2.1.1 4.3.8 7 2.7z"/><path class="st0" d="M96.5 202.5c-1.3-1.6-2.5-3.2-3.5-4.8s-1.8-3.3-2.6-4.9c-.7-1.6-1.4-3.2-1.9-4.8-.3-.8-.5-1.6-.7-2.4-.2-.8-.3-1.6-.5-2.4-1.1-6.3-.8-11.8.5-16.8 1.3-4.9 3.2-8.8 5.1-11.7s3.7-4.7 4.7-5.3l.5.5 1.4 1.4c1.2 1.2 2.6 2.9 4 5 .7 1.1 1.3 2.2 1.9 3.5.6 1.2 1.1 2.5 1.5 3.9.7 2.8.8 5.9 0 9.3-1.9 8.1-5.5 12.6-8.3 16.4-1.4 1.9-2.5 3.7-3 5.7-.6 2.1-.4 4.4.9 7.4zM119.7 227.5c-.8-.7-1.5-1.3-2.3-2-.7-.7-1.5-1.3-2.2-1.9-1.5-1.2-3-2.3-4.5-3.3-.8-.5-1.5-1-2.3-1.4-.4-.2-.8-.4-1.1-.7-.4-.2-.7-.4-1.1-.7-1.5-.9-2.9-1.6-4.4-2.3s-2.9-1.3-4.4-1.8-2.9-1-4.3-1.4c-2.8-.9-5.5-1.4-8.1-1.8-2.6-.4-5.1-.6-7.4-.6-2.3-.1-4.3 0-6.1.2-3.6.3-6.1 1.1-7 1.7 0 0 .4 1.2 1.3 3 .5.9 1 2 1.7 3.2.7 1.1 1.6 2.4 2.5 3.6 2 2.5 4.3 5.1 7.3 7.1s6.5 3.4 10.3 3.8c4.5.4 8.2-.2 11.1-1.1 3-.9 5.3-2.2 7.4-3.2s4.1-1.9 6.2-2.1c2.3-.3 4.5.3 7.4 1.7z"/><path class="st0" d="M119.7 227.5c-.8-.7-1.5-1.4-2.2-2.1-.7-.7-1.3-1.5-1.9-2.2-1.2-1.5-2.3-3-3.3-4.5-.5-.7-.9-1.5-1.4-2.2-.2-.4-.4-.7-.6-1.1-.2-.4-.4-.8-.5-1.2-.7-1.5-1.3-3.1-1.8-4.6s-.9-3-1.2-4.4c-.3-1.4-.5-2.8-.6-4.3-.2-2.8-.1-5.5.2-8 .3-2.5.8-4.7 1.4-6.8s1.4-3.9 2.2-5.5c1.5-3.1 3.1-5.1 4-5.8 0 0 .9.6 2.1 1.6.6.5 1.3 1.2 2.1 1.9s1.6 1.5 2.4 2.5c1.6 1.9 3.1 4.2 4.1 6.8 1.1 2.6 1.6 5.6 1.2 9.1-.5 4.2-1.4 7.5-2.5 10.2-1.1 2.8-2.4 5-3.5 7.1s-2 4-2.2 6.1c-.2 2.3.3 4.7 2 7.4zM146.3 248.9c-3.4-2.4-6.7-4.3-10-5.8-3.2-1.6-6.4-2.9-9.5-3.8-1.6-.5-3.2-.8-4.6-1.2-1.5-.4-3-.6-4.4-.9-2.9-.4-5.7-.6-8.4-.6s-5.1.1-7.4.3c-2.2.2-4.3.6-6.1 1-3.5.8-5.9 1.9-6.7 2.7 0 0 .6 1.1 1.8 2.8 1.2 1.7 2.8 4 5.1 6.3 2.3 2.2 5.2 4.4 8.4 6.1.8.4 1.6.8 2.5 1.1s1.8.6 2.7.8c1.8.4 3.7.6 5.7.4 4.6-.3 8.1-1.4 10.8-2.7 2.8-1.4 5-2.9 6.9-4.3 3.9-2.7 7.1-4.5 13.2-2.2z"/><path class="st0" d="M146.3 248.9c-3.4-2.4-6.2-5-8.6-7.6-2.3-2.7-4.1-5.6-5.5-8.4-.7-1.4-1.4-2.7-1.8-4.2-.5-1.4-.9-2.8-1.2-4.2-.6-2.7-.9-5.4-1-7.8-.1-2.4.2-4.8.5-6.9.4-2.1.9-4 1.4-5.7 1.1-3.3 2.4-5.5 3.2-6.2 0 0 .9.4 2.3 1.2 1.4.8 3.1 2.1 5 3.7s3.7 3.6 5 6c.3.6.6 1.3.9 2 .3.7.6 1.3.8 2.1.4 1.4.7 3 .8 4.8.1 4.2-.4 7.6-1.1 10.6-.7 2.9-1.7 5.3-2.4 7.5-1.6 4.4-2.4 7.9 1.7 13.1zM176 265.7c-1.9-.9-3.7-1.7-5.5-2.3l-2.7-.9c-.9-.3-1.7-.6-2.6-.9-3.4-1.1-6.8-1.7-10-2.1-3.2-.5-6.3-.7-9.2-.7s-5.8.3-8.4.6c-10.4 1.3-18.1 5.2-19.4 7 0 0 3.1 4.1 8.3 8 .6.5 1.3 1 2 1.4.7.5 1.5.9 2.3 1.3 1.6.8 3.2 1.5 5 2.1 3.5 1.1 7.2 1.6 11.1.7 9.1-2.1 13-6.4 16.5-9.6 3.2-3.4 6.2-5.7 12.6-4.6z"/><path class="st0" d="M176 265.7c-1.9-.9-3.6-1.9-5.2-2.9-.8-.5-1.6-1-2.4-1.6-.7-.6-1.4-1.2-2.1-1.7-2.7-2.3-5-4.8-6.8-7.3-1.8-2.6-3.1-5.3-4.2-7.9-1-2.6-1.8-5.1-2.1-7.6-1.5-9.9 1-17.6 2.3-19.3 0 0 3.9 1 7.9 3.7.5.3 1 .7 1.5 1.1l1.5 1.2c1 .8 2 1.8 2.8 2.9 1.7 2.2 3 5 3.7 8.3 1.6 8.1.2 13.8-.7 18.4-.9 4.8-1.1 8.4 3.8 12.7zM36 59.9c-.7-6.6 1.5-11.2 3.5-16.1.5-1.2 1-2.5 1.5-3.8s1-2.7 1.4-4.2c.8-3 1.3-6.4 1.3-10.5.1-3.5-.7-6.8-1.8-9.8-.3-.8-.6-1.5-1-2.2-.3-.7-.7-1.4-1-2.1-.7-1.3-1.5-2.6-2.3-3.7-3.4-4.6-6.9-7.5-8-7.5s-4.5 2.9-7.5 7.8c-.7 1.2-1.5 2.6-2.1 4-.3.7-.6 1.5-.9 2.3s-.5 1.6-.7 2.4c-.8 3.3-1.2 6.9-.7 10.7.7 4.7 1.8 8.3 3.2 11.3 1.3 3 3 5.3 4.6 7.5 3.3 4.3 6.3 7.9 8 14.4l2.5-.5z"/><path class="st0" d="M228.6 256c-.8-1.5-1.8-2.8-2.9-3.9-1-1.1-2.2-1.9-3.3-2.8a20 20 0 0 0-7.1-3.1c-2.4-.5-4.4-.9-6-1s-2.6-.1-2.6-.1c-.6 1.6-.7 7.1 1.5 13.8.5 1.7 1.3 3.3 2.2 5.1.9 1.7 2 3.5 3.3 5.2s2.8 3.5 4.5 5.1c1.7 1.5 3.7 3 5.9 4.4-6.4-1.2-13.3-3.1-20.7-5.2-1.7-3.1-1.3-6.4-1.2-10.5 0-2.1 0-4.3-.3-6.8-.2-1.3-.4-2.6-.7-3.9-.3-1.4-.8-2.8-1.3-4.4-2.3-6.7-7.2-9.8-11.5-11.9-2.2-1-4.3-1.5-5.8-1.9s-2.5-.5-2.5-.5c-.4.8-.9 2.5-1.1 5-.1 1.2-.2 2.6-.1 4.1.1 1.5.2 3.1.5 4.8.6 3.4 1.8 7.3 3.8 11.2 2.1 3.8 5 7.5 9 11.1-11.8-4.5-24.3-10.4-36.6-17.9s-24.4-16.6-35.6-27.2C108.9 214 98.7 202.3 89.7 190S73 164.9 66.6 152.4c-6.5-12.6-11.5-24.9-15.7-36.3-1.9-5.7-3.9-11.1-5.3-16.2-.8-2.6-1.5-5-2.2-7.4-.6-2.4-1.2-4.7-1.8-6.9-.6-2.2-1.1-4.3-1.6-6.2-.4-2-.8-3.8-1.2-5.6-.4-1.7-.7-3.4-1-4.9-.2-.7-.3-1.5-.5-2.1-.1-.7-.2-1.3-.3-1.9-.9-4.9-1.3-7.6-1.3-7.6l-2.7.4s.5 2.7 1.3 7.7c.1.6.2 1.3.3 2s.3 1.4.4 2.2c.3 1.5.6 3.2 1 4.9.4 1.8.8 3.7 1.2 5.7.5 2 1 4.1 1.5 6.3s1.1 4.5 1.7 7c.7 2.4 1.4 4.9 2.2 7.5 1.4 5.2 3.3 10.7 5.2 16.5 4.1 11.5 9.1 24.1 15.6 36.9 6.5 12.8 14.2 25.9 23.2 38.5s19.3 24.6 30.7 35.4c11.3 10.8 23.6 20.3 36.2 28.1 12.6 7.8 25.3 13.9 37.4 18.6-5.4-.4-10.5.1-15.1 1.1-4.5.8-8.7 2.1-12.2 3.6-1.8.7-3.4 1.5-4.9 2.3s-2.7 1.5-3.8 2.2c-2.1 1.4-3.5 2.7-3.9 3.5 0 0 .9.9 2.5 2.3 1.6 1.3 4.1 2.9 7 4.4 5.7 3.1 13.7 4.9 20.9 2.2 1.7-.6 3.3-1.5 4.6-2.3 1.4-.8 2.5-1.7 3.5-2.5 2.1-1.7 3.6-3.5 4.9-5.2 2.6-3.3 4.3-6.2 7.6-7.6.9.4 1.9.6 2.9.9s1.9.5 2.8.8c1.9.5 3.7 1 5.5 1.5.9.2 1.8.5 2.7.7s1.8.4 2.6.6c1.7.4 3.4.7 5.1 1.1-2.7.3-5.2.8-7.7 1.5-2.4.6-4.7 1.2-6.9 2.1-4.3 1.6-8.2 3.6-11.4 5.6-6.4 3.8-10.4 8-11 9.7 0 0 1.1.7 2.9 1.8 1.8 1 4.4 2.4 7.5 3.3s6.7 1.6 10.3 1.7c1.8 0 3.7-.3 5.5-.7 1.8-.5 3.6-1.2 5.2-2.2 3.2-1.9 5.5-3.9 7.2-5.9 1.7-1.9 3-4 4-5.8 2-3.7 3.3-6.8 6.2-8.8 2.6.4 5 .8 7.2 1.1 2.2.2 4.3.4 6.2.6 3.7.3 6.6.6 8.6.7-5.1 1.4-9.6 3.3-13.7 5.7-2 1.2-3.9 2.3-5.6 3.5-1.7 1.2-3.3 2.4-4.7 3.6-5.7 4.9-8.9 9.6-9.2 11.3 0 0 4.6 2.2 11 3.3.8.1 1.6.3 2.5.3.4 0 .8.1 1.3.1h1.4c1.8 0 3.7-.1 5.6-.4 1.9-.3 3.7-.8 5.5-1.5.9-.4 1.7-.8 2.6-1.2.4-.2.8-.5 1.2-.8s.8-.5 1.1-.9c5.1-5 14.6-24.6 14.6-25.5 0-1.7-8.1-21.3-13.1-26.6-.3-.3-.6-.7-.9-1s-.5-.6-.8-.9c-.5-.6-1.1-1.1-1.7-1.6-1.1-1-2.3-1.7-3.5-2.3s-2.4-1-3.6-1.2c-.6-.1-1.2-.3-1.8-.4l-1.8-.3c-4.8-.6-8.8.3-8.8.3-.3 1.7.5 7 3.6 13.1.8 1.5 1.8 3.1 2.9 4.7 1.1 1.6 2.4 3.2 3.9 4.7 3 2.9 6.8 5.7 11.5 7.9-2-.2-4.8-.4-8.3-.7-1.8-.2-3.7-.3-5.8-.5-2.1-.3-4.4-.6-6.8-1-2-2.7-2.2-6-2.7-10.1-.3-2-.7-4.2-1.4-6.6-.6-2.8-1.7-5.5-3.3-8.3z"/><circle class="st0" cx="277.9" cy="286.5" r="9"/></svg>