<?xml version="1.0" encoding="utf-8"?><svg xmlns="http://www.w3.org/2000/svg" xmlns:xlink="http://www.w3.org/1999/xlink"><symbol viewBox="0 0 60 55" id="Chat" xmlns="http://www.w3.org/2000/svg"><path d="M39 32H21c-.6 0-1-.4-1-1s.4-1 1-1h18c.6 0 1-.4 1-1V3c0-.6-.4-1-1-1H3c-.6 0-1 .4-1 1v26c0 .6.4 1 1 1h8c.6 0 1 .4 1 1s-.4 1-1 1H3c-1.7 0-3-1.3-3-3V3c0-1.7 1.3-3 3-3h36c1.7 0 3 1.3 3 3v26c0 1.7-1.3 3-3 3z"/><path d="M33 13H9c-.6 0-1-.4-1-1s.4-1 1-1h24c.6 0 1 .4 1 1s-.4 1-1 1zm-7 8H9c-.6 0-1-.4-1-1s.4-1 1-1h17c.6 0 1 .4 1 1s-.4 1-1 1zM11 42c-.1 0-.3 0-.4-.1-.4-.1-.6-.5-.6-.9V31c0-.6.4-1 1-1s1 .4 1 1v7.6l8.3-8.3c.4-.4 1-.4 1.4 0s.4 1 0 1.4l-10 10c-.2.2-.4.3-.7.3zm46 3H47c-.6 0-1-.4-1-1s.4-1 1-1h10c.6 0 1-.4 1-1V20c0-.6-.4-1-1-1H47c-.6 0-1-.4-1-1s.4-1 1-1h10c1.7 0 3 1.3 3 3v22c0 1.7-1.3 3-3 3zm-20 0H26c-1 0-2-1-2-2v-6c0-.6.4-1 1-1s1 .4 1 1v6h11c.6 0 1 .4 1 1s-.4 1-1 1z"/><path d="M47 55c-.3 0-.5-.1-.7-.3l-10-10c-.4-.4-.4-1 0-1.4s1-.4 1.4 0l8.3 8.3V44c0-.6.4-1 1-1s1 .4 1 1v10c0 .4-.2.8-.6.9-.1.1-.3.1-.4.1z"/></symbol><symbol id="Menu" viewBox="0 0 63 47" xmlns="http://www.w3.org/2000/svg"><style>.bst0{fill:none;stroke:#000;stroke-width:5;stroke-linecap:round;stroke-linejoin:round;stroke-miterlimit:10}</style><path class="bst0" d="M2.5 2.5h58m-58 14h58M2.5 30.5h58m-58 14h38"/></symbol><symbol viewBox="0 0 34 60" id="Mouse" xmlns="http://www.w3.org/2000/svg"><path d="M17 60C7.6 60 0 52.6 0 43.5v-27C0 7.4 7.6 0 17 0s17 7.4 17 16.5v27C34 52.6 26.4 60 17 60zm0-58C8.7 2 2 8.5 2 16.5v27C2 51.5 8.7 58 17 58s15-6.5 15-14.5v-27C32 8.5 25.3 2 17 2z"/><path d="M17 28c-.6 0-1-.4-1-1V9c0-.6.4-1 1-1s1 .4 1 1v18c0 .6-.4 1-1 1z"/><path d="M17 29c-.3 0-.5-.1-.7-.3l-6-6c-.4-.4-.4-1 0-1.4s1-.4 1.4 0l5.3 5.3 5.3-5.3c.4-.4 1-.4 1.4 0s.4 1 0 1.4l-6 6c-.2.2-.4.3-.7.3z"/></symbol><symbol viewBox="0 0 52 60" id="Pacman" xmlns="http://www.w3.org/2000/svg"><path d="M30.5 60H30c-8.2-.1-15.7-3.2-21.3-8.8C-3 39.5-3 20.5 8.7 8.8 14.3 3.2 21.8.1 30 0c8.6-.1 16.3 2.8 21.7 8.3.4.4.4 1 0 1.4L31.4 30l20.3 20.3c.4.4.4 1 0 1.4-5.4 5.4-12.9 8.3-21.2 8.3zm0-58h-.4c-7.6.1-14.7 3-19.9 8.2-10.9 10.9-10.9 28.7 0 39.6C15.3 55 22.4 57.9 30 58c7.7.1 14.5-2.4 19.6-7L29.3 30.7c-.4-.4-.4-1 0-1.4L49.6 9c-5-4.5-11.7-7-19.1-7z"/><circle cx="26" cy="15" r="2"/><path d="M26 18c-1.7 0-3-1.3-3-3s1.3-3 3-3 3 1.3 3 3-1.3 3-3 3zm0-4c-.6 0-1 .4-1 1s.4 1 1 1 1-.4 1-1-.4-1-1-1z"/></symbol><symbol viewBox="0 0 60 60" id="Scheme" xmlns="http://www.w3.org/2000/svg"><path d="M30 31c-.6 0-1-.4-1-1V15c0-.6.4-1 1-1s1 .4 1 1v15c0 .6-.4 1-1 1zM8 46c-.6 0-1-.4-1-1V30c0-.6.4-1 1-1s1 .4 1 1v15c0 .6-.4 1-1 1z"/><path d="M52 31H8c-.6 0-1-.4-1-1s.4-1 1-1h44c.6 0 1 .4 1 1s-.4 1-1 1zM15 60H1c-.6 0-1-.4-1-1V45c0-.6.4-1 1-1h14c.6 0 1 .4 1 1v14c0 .6-.4 1-1 1zM2 58h12V46H2v12z"/><path d="M30 46c-.6 0-1-.4-1-1V30c0-.6.4-1 1-1s1 .4 1 1v15c0 .6-.4 1-1 1z"/><path d="M37 60H23c-.6 0-1-.4-1-1V45c0-.6.4-1 1-1h14c.6 0 1 .4 1 1v14c0 .6-.4 1-1 1zm-13-2h12V46H24v12zm28-12c-.6 0-1-.4-1-1V30c0-.6.4-1 1-1s1 .4 1 1v15c0 .6-.4 1-1 1z"/><path d="M59 60H45c-.6 0-1-.4-1-1V45c0-.6.4-1 1-1h14c.6 0 1 .4 1 1v14c0 .6-.4 1-1 1zm-13-2h12V46H46v12zm4-42H10c-.6 0-1-.4-1-1V1c0-.6.4-1 1-1h40c.6 0 1 .4 1 1v14c0 .6-.4 1-1 1zm-39-2h38V2H11v12z"/></symbol><symbol viewBox="0 0 60 60" id="SearchGlass" xmlns="http://www.w3.org/2000/svg"><path d="M22 44c-7.7 0-14.7-4-18.8-10.6-.2-.5-.1-1.1.4-1.4.5-.3 1.1-.1 1.4.3 3.7 6 10 9.6 17 9.6 11 0 20-9 20-20s-9-20-20-20C11 2 2 11 2 22c0 .7 0 1.3.1 2 .1.5-.3 1.1-.8 1.1-.5.1-1.1-.3-1.1-.8C0 23.5 0 22.7 0 22 0 9.9 9.9 0 22 0s22 9.9 22 22-9.9 22-22 22z"/><path d="M59 60c-.3 0-.5-.1-.7-.3L36.1 37.5c-.4-.4-.4-1 0-1.4s1-.4 1.4 0l22.2 22.2c.4.4.4 1 0 1.4-.2.2-.4.3-.7.3z"/></symbol><symbol viewBox="0 0 39 67" id="arrow" xmlns="http://www.w3.org/2000/svg"><path d="M7.1 66c-1.6 0-3.2-.6-4.5-1.8C0 61.7-.1 57.6 2.4 55l20.5-21.5L2.4 12C-.1 9.4 0 5.3 2.6 2.8 5.2.3 9.3.4 11.8 3l24.8 26c2.4 2.5 2.4 6.5 0 9L11.8 64c-1.3 1.3-3 2-4.7 2z"/></symbol><symbol id="fb" viewBox="0 0 160.7 308.6" xmlns="http://www.w3.org/2000/svg"><style>.hst0{fill:#3a559f}</style><path class="hst0" d="M47.5 308.6H105V169.4h47.2l7.6-57.5H105v-40c0-11.2 9-20.2 20.2-20.2h35.5V0H111C75.9 0 47.5 28.5 47.5 63.6v48.3H0v57.5h47.5v139.2z"/></symbol><symbol id="insta" viewBox="0 0 243.8 243.8" xmlns="http://www.w3.org/2000/svg"><style>.ist0{fill:#c536a4}</style><path class="ist0" d="M121.9 59.1c-34.6 0-62.8 28.2-62.8 62.8 0 34.6 28.2 62.8 62.8 62.8 34.6 0 62.8-28.2 62.8-62.8 0-34.6-28.2-62.8-62.8-62.8zm0 99.1c-20 0-36.3-16.3-36.3-36.3 0-20 16.3-36.2 36.3-36.2 20 0 36.3 16.3 36.3 36.2-.1 20-16.3 36.3-36.3 36.3z"/><path class="ist0" d="M182.3 0H61.5C27.6 0 0 27.6 0 61.5v120.8c0 33.9 27.6 61.5 61.5 61.5h120.8c33.9 0 61.5-27.6 61.5-61.5V61.5c0-33.9-27.6-61.5-61.5-61.5zm35 182.3c0 19.3-15.7 35-35 35H61.5c-19.3 0-35-15.7-35-35V61.5c0-19.3 15.7-35 35-35h120.8c19.3 0 35 15.7 35 35v120.8z"/><path class="ist0" d="M186.7 42.4c-8.2 0-14.9 6.7-14.9 14.9s6.7 14.9 14.9 14.9 14.9-6.7 14.9-14.9c0-8.3-6.7-14.9-14.9-14.9z"/></symbol><symbol viewBox="0 0 48 60" id="shield" xmlns="http://www.w3.org/2000/svg"><path d="M24 60c-.4 0-.8-.3-.9-.7-.2-.5.1-1.1.6-1.3C45.9 49.9 46 22.6 46 22.3c0-.6.4-1 1-1 .5 0 1 .4 1 1 0 .3-.1 29-23.7 37.6-.1.1-.2.1-.3.1z"/><path d="M47 23.3c-.6 0-1-.4-1-1V10h-4.6c-.6 0-1-.4-1-1s.4-1 1-1H46c1 0 2 1 2 2v12.3c0 .6-.4 1-1 1zM24 60c-.1 0-.2 0-.3-.1C.1 51.3 0 22.6 0 22.3c0-.5.5-1 1-1 .6 0 1 .5 1 1 0 .3.1 27.6 22.3 35.8.5.2.8.8.6 1.3-.1.3-.5.6-.9.6z"/><path d="M1 23.3c-.6 0-1-.4-1-1V10c0-1 1-2 2-2h4.6c.6 0 1 .4 1 1s-.4 1-1 1H2v12.3c0 .6-.4 1-1 1z"/><path d="M41.3 10C31.1 10 25.8 5 24 2.7 22.1 5 16.9 10 6.7 10c-.6 0-1-.4-1-1s.4-1 1-1C18.5 8 22.9.8 23 .5c.2-.3.5-.5.9-.5h.1c.4 0 .7.2.9.5C25 .8 29.5 8 41.3 8c.6 0 1 .4 1 1s-.4 1-1 1zM30.2 41c-.2 0-.3 0-.5-.1L24 37.7l-5.7 3.1c-.3.2-.7.2-1.1-.1-.3-.2-.5-.6-.4-1l1.1-6.7-4.6-4.7c-.3-.3-.4-.7-.2-1 .1-.4.4-.6.8-.7l6.4-1 2.9-6.1c.2-.4.5-.6.9-.6s.7.2.9.6l2.9 6.1 6.4 1c.4.1.7.3.8.7.1.4 0 .7-.2 1L30.3 33l1.1 6.7c.1.4-.1.8-.4 1-.4.2-.6.3-.8.3zM24 35.6c.2 0 .3 0 .5.1l4.4 2.4L28 33c-.1-.3 0-.6.3-.9l3.6-3.7-5-.8c-.3-.1-.6-.3-.7-.6L24 22.4 21.8 27c-.1.3-.4.5-.7.6l-5 .8 3.6 3.7c.2.2.3.5.3.9l-.9 5.2 4.4-2.4c.2-.2.3-.2.5-.2z"/></symbol><symbol id="twitter" viewBox="0 0 268 217.7" xmlns="http://www.w3.org/2000/svg"><style>.kst0{fill:#fff}</style><path class="kst0" d="M0 193.4c24.3 15.4 53 24.3 83.9 24.3 86.7 0 156.9-70.3 156.9-156.9 0-2.2 0-4.3-.1-6.5 3.1-2.5 22.5-18 27.3-28 0 0-15.8 6.5-31.2 8.1h-.1l.1-.1c1.4-1 21.3-14.5 24-30.6 0 0-11.1 5.9-26.7 11.1-2.6.9-5.3 1.7-8.1 2.5C215.9 6.7 201.7 0 185.8 0c-30.4 0-55.1 24.6-55.1 55 0 4.3.5 8.5 1.4 12.5-4.2-.2-69-3.8-113-57.1 0 0-26.3 35.9 15.7 72.9 0 0-12.8-.5-23.8-7.1 0 0-4 43.5 43.5 54.7 0 0-9.4 3.5-24.3 1 0 0 8.4 35.2 50.6 38.5.1-.1-33.4 30.1-80.8 23zm0 0"/></symbol><symbol id="vk" viewBox="0 0 313 179.8" xmlns="http://www.w3.org/2000/svg"><style>.lst0{fill:#fff}</style><path class="lst0" d="M68.6 18.6c8.7 21.6 19.8 41.9 34.4 60.2 1.9 2.4 4.4 4.6 6.9 6.4 3.8 2.6 7.3 1.7 8.8-2.6 1.6-4.5 3.1-13.6 3.2-18.4.2-12.4 0-20.5-.7-32.8-.4-7.9-3.2-14.8-14.9-16.9-3.6-.6-3.9-3.6-1.6-6.6 4.8-6.1 11.5-7.1 18.8-7.5 11.8-.6 23.6-.1 35.3 0 4.8 0 9.6.4 14.3 1.5 6.2 1.3 9.5 5.7 10.5 11.7.5 3.1.8 6.3.7 9.4-.3 13.5-1 27-1.1 40.5-.1 5.3.3 10.7 1.5 15.9 1.6 7.2 6.5 9 11.5 3.8 6.4-6.6 11.9-14 17.2-21.5C223 48 230.1 33 236.2 17.5c3.2-8 5.6-9.7 14.2-9.8 16.2 0 32.4-.1 48.5 0 2.9 0 5.9.3 8.6 1.1 4.4 1.4 6.1 5 5.1 9.5-2.4 10.7-8.2 19.7-14.3 28.4-9.9 14-20.3 27.6-30.4 41.4-1.3 1.8-2.4 3.6-3.5 5.5-3.8 6.8-3.5 10.7 2 16.4 8.8 9.1 18.2 17.6 26.7 26.9 6.2 6.8 11.9 14.1 16.8 21.9 6.2 9.8 2.4 19-9.2 20.7-7.3 1-42.9 0-44.8 0-9.6 0-18-3.4-24.7-9.9-7.5-7.2-14.4-15.2-21.6-22.7-2.2-2.3-4.5-4.5-7-6.4-5.9-4.5-11.7-3.5-14.5 3.4-2.4 6-4.4 21.6-4.5 22.9-.5 7-4.9 11.4-12.8 11.9-22.6 1.2-44.5-1.3-64.9-12.2-17.3-9.3-31.1-22.3-43-37.6-19-24.2-34-50.9-47.7-78.3C14.7 49 .8 19.5.5 18.1-.8 13.5.4 9 4.3 7.5c2.5-1 48.2 0 49 0 7.3.4 12.3 3.5 15.3 11.1zm0 0"/></symbol><symbol id="watches" viewBox="0 0 60 60" xmlns="http://www.w3.org/2000/svg"><style>.mst0{fill:#fff}.st1{fill:none;stroke:#000;stroke-width:2;stroke-linecap:round;stroke-linejoin:round;stroke-miterlimit:10}</style><path class="mst0" d="M49 2H11c-.6 0-1-.4-1-1s.4-1 1-1h38c.6 0 1 .4 1 1s-.4 1-1 1z"/><path class="mst0" d="M44 17c-.6 0-1-.4-1-1V1c0-.6.4-1 1-1s1 .4 1 1v15c0 .6-.4 1-1 1zm-28 0c-.6 0-1-.4-1-1V1c0-.6.4-1 1-1s1 .4 1 1v15c0 .6-.4 1-1 1z"/><path class="mst0" d="M30 31c-2.2 0-15-4.1-15-15 0-.6.4-1 1-1s1 .4 1 1c0 9.6 11.9 13 13 13 1.1 0 13-3.4 13-13 0-.6.4-1 1-1s1 .4 1 1c0 10.9-12.8 15-15 15zM49 60H11c-.6 0-1-.4-1-1s.4-1 1-1h38c.6 0 1 .4 1 1s-.4 1-1 1z"/><path class="mst0" d="M16 60c-.6 0-1-.4-1-1V44c0-.6.4-1 1-1s1 .4 1 1v15c0 .6-.4 1-1 1zm28 0c-.6 0-1-.4-1-1V44c0-.6.4-1 1-1s1 .4 1 1v15c0 .6-.4 1-1 1z"/><path class="mst0" d="M44 45c-.6 0-1-.4-1-1 0-9.6-11.9-13-13-13-1.1 0-13 3.4-13 13 0 .6-.4 1-1 1s-1-.4-1-1c0-10.9 12.8-15 15-15s15 4.1 15 15c0 .6-.4 1-1 1z"/><g><path class="mst0" d="M9 25c-.6 0-1-.4-1-1v-7H1c-.6 0-1-.4-1-1s.4-1 1-1h8c.6 0 1 .4 1 1v8c0 .6-.4 1-1 1z"/><path class="mst0" d="M5 44c-.3 0-.6-.1-.8-.4C1 39.6-.6 33.5.3 27.9c.6-3.7 2.4-9 8.1-12.8.5-.3 1.1-.2 1.4.3.3.5.2 1.1-.3 1.4-5.1 3.4-6.8 8.1-7.3 11.4-.8 5 .6 10.6 3.5 14.1.3.4.3 1.1-.1 1.4-.2.2-.4.3-.6.3z"/></g><g><path class="mst0" d="M59 44h-8c-.6 0-1-.4-1-1v-8c0-.6.4-1 1-1s1 .4 1 1v7h7c.6 0 1 .4 1 1s-.4 1-1 1z"/><path class="mst0" d="M51.1 44c-.3 0-.6-.2-.8-.4-.3-.5-.2-1.1.3-1.4 5.1-3.4 6.8-8.1 7.3-11.4.8-5-.6-10.6-3.5-14.1-.3-.4-.3-1.1.1-1.4.4-.3 1.1-.3 1.4.1 3.2 4 4.8 10.1 3.9 15.7-.6 3.7-2.4 9-8.1 12.8-.2 0-.4.1-.6.1z"/></g></symbol><symbol id="wreath" viewBox="0 0 286.9 316.8" xmlns="http://www.w3.org/2000/svg"><style>.nst0{fill:#fff}</style><path class="nst0" d="M38.6 80.1c-.9-4-2-7.7-3.5-11-.8-1.7-1.4-3.2-2.2-4.7s-1.6-2.9-2.5-4.3c-3.6-5.4-7.5-9.7-11.6-13.1-2-1.7-4-3.1-6-4.3-1.9-1.2-3.7-2.2-5.3-2.9-3.2-1.5-5.8-2.1-6.9-2 0 0-.3 1.2-.5 3.2-.1 1-.2 2.2-.2 3.5s.1 2.8.2 4.3c.3 3.1 1 6.4 2.4 9.6 1.5 3.2 3.6 6.1 6.7 8.4 7.3 5.4 13.2 5.7 17.9 6.3 4.8.4 8.5 1.2 11.5 7z"/><path class="nst0" d="M38.6 80.1c-.9-4-1.2-7.9-1.2-11.4 0-1.8.2-3.5.4-5.2s.5-3.3.9-4.8c1.4-6.1 4.4-11.2 7.4-15.1 1.5-2 3.1-3.7 4.7-5.1 1.6-1.5 3.2-2.7 4.7-3.6 2.9-1.9 5.3-2.9 6.4-3 0 0 .5 1 1 2.5.3.8.5 1.7.8 2.8.3 1.1.6 2.2.8 3.5.4 2.5.5 5.4 0 8.3-.5 2.9-1.6 5.9-3.8 8.7-5.3 6.7-10.4 9.2-14.6 11.5-4.1 2.2-7.1 4.3-7.5 10.9zm9.3 32.8c-.7-2-1.4-3.8-2.2-5.6-.8-1.7-1.5-3.4-2.4-5-1.7-3.2-3.6-6-5.7-8.5-1.9-2.5-4.1-4.8-6.2-6.7-2.1-2-4.4-3.7-6.5-5.1-8.5-6-16.8-8-18.9-7.6 0 0-.5 4.9.7 11 .1.8.3 1.5.5 2.3s.5 1.6.8 2.4c.6 1.6 1.3 3.2 2.1 4.7 1.7 3 4 5.8 7.4 7.7 7.9 4.6 13.7 4.3 18.4 4.5 4.7.1 8.4.5 12 5.9z"/><path class="nst0" d="M47.9 112.9c-.7-2-1.2-3.9-1.6-5.7-.5-1.9-.6-3.7-.8-5.5-.3-3.6-.2-6.9.2-10 .5-3.1 1.3-6 2.3-8.7 1-2.6 2.2-5 3.6-7.1 5.5-8.5 12.5-12.7 14.6-13.2 0 0 2.3 3.6 3.5 8.6.2.6.3 1.3.4 1.9.1.7.3 1.3.3 2 .2 1.4.2 2.8.1 4.3-.2 2.9-1.2 6-3 9-4.5 7.1-9.4 10.2-13.4 12.8-3.8 2.7-6.5 5.1-6.2 11.6zm12.7 31.7c-.9-1.8-1.8-3.6-2.7-5.3s-1.9-3.3-3-4.7c-2.1-2.9-4.2-5.6-6.5-7.9-2.2-2.3-4.6-4.3-7-6-2.3-1.8-4.7-3.2-7-4.5-9.3-5-17.5-6.2-19.6-5.6 0 0 0 1.2.2 3.2.1 2 .7 4.7 1.6 7.7.5 1.5 1 3 1.7 4.5s1.5 3.1 2.6 4.5c2.1 2.8 4.8 5.3 8.2 7 4.1 1.9 7.7 2.6 10.8 2.8s5.7-.1 8.1-.3 4.5-.3 6.5.3c1 .3 2 .8 3 1.5L59 143c.5.4 1.1 1 1.6 1.6zm0 0c-.9-1.8-1.6-3.7-2.2-5.6-.6-1.8-1-3.6-1.4-5.4-.8-3.5-.9-6.9-.7-10 .2-3.2.6-6.1 1.4-8.8.8-2.7 1.8-5.2 2.9-7.5 4.4-8.9 11.2-13.9 13.2-14.5 0 0 .6.8 1.5 2.3.8 1.5 2 3.4 2.8 5.8.4 1.2.8 2.5 1.1 3.8.3 1.4.4 2.8.5 4.2.1 2.9-.4 6-2 9.2-2 3.8-4 6.6-6 8.8-2.1 2.2-4.1 3.8-5.9 5.4-1.8 1.5-3.3 3-4.3 4.9-.5.9-.8 2-1 3.2-.1.6-.1 1.3-.1 2 0 .6.1 1.4.2 2.2zm16.2 30c-2.1-3.6-4.5-6.6-6.8-9.3-2.3-2.8-4.8-5.1-7.3-7.1-.6-.5-1.3-1-1.9-1.5-.6-.5-1.2-.9-1.9-1.4-1.2-.9-2.5-1.7-3.8-2.4-2.5-1.5-5-2.7-7.5-3.7-9.6-4-18.1-4.4-20.1-3.5 0 0 .5 5 2.9 10.7 1.3 2.8 3 5.9 5.3 8.5 1.2 1.3 2.4 2.6 3.9 3.6s3.2 1.9 5 2.5c4.4 1.5 7.9 1.8 11 1.7 1.5-.1 2.9-.2 4.2-.5 1.3-.2 2.6-.5 3.7-.7 4.9-.9 8.6-1.3 13.3 3.1z"/><path class="nst0" d="M76.8 174.6c-2.1-3.6-3.8-7-4.8-10.4s-1.6-6.8-1.9-9.9c-.1-.8-.1-1.6-.1-2.3 0-.8 0-1.5.1-2.3.1-1.5.3-2.9.5-4.3.5-2.8 1.2-5.3 2-7.7 3.6-9.4 9.7-15 11.7-15.8 0 0 2.9 3 5 7.6 1.2 2.2 2.2 4.9 2.5 7.8.2 1.4.2 3 .1 4.5s-.5 3.1-1.1 4.8c-1.5 3.9-3.2 6.9-5.1 9.4-.9 1.2-1.8 2.3-2.7 3.3-.9 1-1.7 1.9-2.5 2.7-3.3 3.4-5.5 6.3-3.7 12.6zm19.7 27.9c-1.3-1.6-2.6-3.1-4-4.5-1.3-1.4-2.6-2.7-3.9-3.9s-2.7-2.3-4.1-3.3l-2.1-1.5c-.7-.5-1.3-.9-2-1.4-5.3-3.5-11-5.7-16-7.2-5-1.4-9.7-2-13.3-2.1-3.7-.1-6.2.3-7.1.9 0 0 .1.3.2.9.1.6.4 1.3.7 2.3.7 1.9 1.8 4.5 3.3 7.2.8 1.4 1.7 2.8 2.7 4.1 1.1 1.3 2.3 2.6 3.6 3.8 2.7 2.3 5.8 4.3 9.6 5.1 9.1 1.8 14.5-.4 19-1.9 2.2-.7 4.3-1.3 6.4-1.2 2.1.1 4.3.8 7 2.7z"/><path class="nst0" d="M96.5 202.5c-1.3-1.6-2.5-3.2-3.5-4.8s-1.8-3.3-2.6-4.9c-.7-1.6-1.4-3.2-1.9-4.8-.3-.8-.5-1.6-.7-2.4-.2-.8-.3-1.6-.5-2.4-1.1-6.3-.8-11.8.5-16.8 1.3-4.9 3.2-8.8 5.1-11.7s3.7-4.7 4.7-5.3l.5.5 1.4 1.4c1.2 1.2 2.6 2.9 4 5 .7 1.1 1.3 2.2 1.9 3.5.6 1.2 1.1 2.5 1.5 3.9.7 2.8.8 5.9 0 9.3-1.9 8.1-5.5 12.6-8.3 16.4-1.4 1.9-2.5 3.7-3 5.7-.6 2.1-.4 4.4.9 7.4zm23.2 25c-.8-.7-1.5-1.3-2.3-2-.7-.7-1.5-1.3-2.2-1.9-1.5-1.2-3-2.3-4.5-3.3-.8-.5-1.5-1-2.3-1.4-.4-.2-.8-.4-1.1-.7-.4-.2-.7-.4-1.1-.7-1.5-.9-2.9-1.6-4.4-2.3s-2.9-1.3-4.4-1.8-2.9-1-4.3-1.4c-2.8-.9-5.5-1.4-8.1-1.8-2.6-.4-5.1-.6-7.4-.6-2.3-.1-4.3 0-6.1.2-3.6.3-6.1 1.1-7 1.7 0 0 .4 1.2 1.3 3 .5.9 1 2 1.7 3.2.7 1.1 1.6 2.4 2.5 3.6 2 2.5 4.3 5.1 7.3 7.1s6.5 3.4 10.3 3.8c4.5.4 8.2-.2 11.1-1.1 3-.9 5.3-2.2 7.4-3.2s4.1-1.9 6.2-2.1c2.3-.3 4.5.3 7.4 1.7z"/><path class="nst0" d="M119.7 227.5c-.8-.7-1.5-1.4-2.2-2.1-.7-.7-1.3-1.5-1.9-2.2-1.2-1.5-2.3-3-3.3-4.5-.5-.7-.9-1.5-1.4-2.2-.2-.4-.4-.7-.6-1.1-.2-.4-.4-.8-.5-1.2-.7-1.5-1.3-3.1-1.8-4.6s-.9-3-1.2-4.4c-.3-1.4-.5-2.8-.6-4.3-.2-2.8-.1-5.5.2-8 .3-2.5.8-4.7 1.4-6.8s1.4-3.9 2.2-5.5c1.5-3.1 3.1-5.1 4-5.8 0 0 .9.6 2.1 1.6.6.5 1.3 1.2 2.1 1.9s1.6 1.5 2.4 2.5c1.6 1.9 3.1 4.2 4.1 6.8 1.1 2.6 1.6 5.6 1.2 9.1-.5 4.2-1.4 7.5-2.5 10.2-1.1 2.8-2.4 5-3.5 7.1s-2 4-2.2 6.1c-.2 2.3.3 4.7 2 7.4zm26.6 21.4c-3.4-2.4-6.7-4.3-10-5.8-3.2-1.6-6.4-2.9-9.5-3.8-1.6-.5-3.2-.8-4.6-1.2-1.5-.4-3-.6-4.4-.9-2.9-.4-5.7-.6-8.4-.6s-5.1.1-7.4.3c-2.2.2-4.3.6-6.1 1-3.5.8-5.9 1.9-6.7 2.7 0 0 .6 1.1 1.8 2.8 1.2 1.7 2.8 4 5.1 6.3 2.3 2.2 5.2 4.4 8.4 6.1.8.4 1.6.8 2.5 1.1s1.8.6 2.7.8c1.8.4 3.7.6 5.7.4 4.6-.3 8.1-1.4 10.8-2.7 2.8-1.4 5-2.9 6.9-4.3 3.9-2.7 7.1-4.5 13.2-2.2z"/><path class="nst0" d="M146.3 248.9c-3.4-2.4-6.2-5-8.6-7.6-2.3-2.7-4.1-5.6-5.5-8.4-.7-1.4-1.4-2.7-1.8-4.2-.5-1.4-.9-2.8-1.2-4.2-.6-2.7-.9-5.4-1-7.8-.1-2.4.2-4.8.5-6.9.4-2.1.9-4 1.4-5.7 1.1-3.3 2.4-5.5 3.2-6.2 0 0 .9.4 2.3 1.2 1.4.8 3.1 2.1 5 3.7s3.7 3.6 5 6c.3.6.6 1.3.9 2 .3.7.6 1.3.8 2.1.4 1.4.7 3 .8 4.8.1 4.2-.4 7.6-1.1 10.6-.7 2.9-1.7 5.3-2.4 7.5-1.6 4.4-2.4 7.9 1.7 13.1zm29.7 16.8c-1.9-.9-3.7-1.7-5.5-2.3l-2.7-.9c-.9-.3-1.7-.6-2.6-.9-3.4-1.1-6.8-1.7-10-2.1-3.2-.5-6.3-.7-9.2-.7s-5.8.3-8.4.6c-10.4 1.3-18.1 5.2-19.4 7 0 0 3.1 4.1 8.3 8 .6.5 1.3 1 2 1.4.7.5 1.5.9 2.3 1.3 1.6.8 3.2 1.5 5 2.1 3.5 1.1 7.2 1.6 11.1.7 9.1-2.1 13-6.4 16.5-9.6 3.2-3.4 6.2-5.7 12.6-4.6z"/><path class="nst0" d="M176 265.7c-1.9-.9-3.6-1.9-5.2-2.9-.8-.5-1.6-1-2.4-1.6-.7-.6-1.4-1.2-2.1-1.7-2.7-2.3-5-4.8-6.8-7.3-1.8-2.6-3.1-5.3-4.2-7.9-1-2.6-1.8-5.1-2.1-7.6-1.5-9.9 1-17.6 2.3-19.3 0 0 3.9 1 7.9 3.7.5.3 1 .7 1.5 1.1l1.5 1.2c1 .8 2 1.8 2.8 2.9 1.7 2.2 3 5 3.7 8.3 1.6 8.1.2 13.8-.7 18.4-.9 4.8-1.1 8.4 3.8 12.7zM36 59.9c-.7-6.6 1.5-11.2 3.5-16.1.5-1.2 1-2.5 1.5-3.8s1-2.7 1.4-4.2c.8-3 1.3-6.4 1.3-10.5.1-3.5-.7-6.8-1.8-9.8-.3-.8-.6-1.5-1-2.2-.3-.7-.7-1.4-1-2.1-.7-1.3-1.5-2.6-2.3-3.7-3.4-4.6-6.9-7.5-8-7.5s-4.5 2.9-7.5 7.8c-.7 1.2-1.5 2.6-2.1 4-.3.7-.6 1.5-.9 2.3s-.5 1.6-.7 2.4c-.8 3.3-1.2 6.9-.7 10.7.7 4.7 1.8 8.3 3.2 11.3 1.3 3 3 5.3 4.6 7.5 3.3 4.3 6.3 7.9 8 14.4l2.5-.5z"/><path class="nst0" d="M228.6 256c-.8-1.5-1.8-2.8-2.9-3.9-1-1.1-2.2-1.9-3.3-2.8a20 20 0 0 0-7.1-3.1c-2.4-.5-4.4-.9-6-1s-2.6-.1-2.6-.1c-.6 1.6-.7 7.1 1.5 13.8.5 1.7 1.3 3.3 2.2 5.1.9 1.7 2 3.5 3.3 5.2s2.8 3.5 4.5 5.1c1.7 1.5 3.7 3 5.9 4.4-6.4-1.2-13.3-3.1-20.7-5.2-1.7-3.1-1.3-6.4-1.2-10.5 0-2.1 0-4.3-.3-6.8-.2-1.3-.4-2.6-.7-3.9-.3-1.4-.8-2.8-1.3-4.4-2.3-6.7-7.2-9.8-11.5-11.9-2.2-1-4.3-1.5-5.8-1.9s-2.5-.5-2.5-.5c-.4.8-.9 2.5-1.1 5-.1 1.2-.2 2.6-.1 4.1.1 1.5.2 3.1.5 4.8.6 3.4 1.8 7.3 3.8 11.2 2.1 3.8 5 7.5 9 11.1-11.8-4.5-24.3-10.4-36.6-17.9s-24.4-16.6-35.6-27.2C108.9 214 98.7 202.3 89.7 190S73 164.9 66.6 152.4c-6.5-12.6-11.5-24.9-15.7-36.3-1.9-5.7-3.9-11.1-5.3-16.2-.8-2.6-1.5-5-2.2-7.4-.6-2.4-1.2-4.7-1.8-6.9-.6-2.2-1.1-4.3-1.6-6.2-.4-2-.8-3.8-1.2-5.6-.4-1.7-.7-3.4-1-4.9-.2-.7-.3-1.5-.5-2.1-.1-.7-.2-1.3-.3-1.9-.9-4.9-1.3-7.6-1.3-7.6l-2.7.4s.5 2.7 1.3 7.7c.1.6.2 1.3.3 2s.3 1.4.4 2.2c.3 1.5.6 3.2 1 4.9.4 1.8.8 3.7 1.2 5.7.5 2 1 4.1 1.5 6.3s1.1 4.5 1.7 7c.7 2.4 1.4 4.9 2.2 7.5 1.4 5.2 3.3 10.7 5.2 16.5 4.1 11.5 9.1 24.1 15.6 36.9 6.5 12.8 14.2 25.9 23.2 38.5s19.3 24.6 30.7 35.4c11.3 10.8 23.6 20.3 36.2 28.1 12.6 7.8 25.3 13.9 37.4 18.6-5.4-.4-10.5.1-15.1 1.1-4.5.8-8.7 2.1-12.2 3.6-1.8.7-3.4 1.5-4.9 2.3s-2.7 1.5-3.8 2.2c-2.1 1.4-3.5 2.7-3.9 3.5 0 0 .9.9 2.5 2.3 1.6 1.3 4.1 2.9 7 4.4 5.7 3.1 13.7 4.9 20.9 2.2 1.7-.6 3.3-1.5 4.6-2.3 1.4-.8 2.5-1.7 3.5-2.5 2.1-1.7 3.6-3.5 4.9-5.2 2.6-3.3 4.3-6.2 7.6-7.6.9.4 1.9.6 2.9.9s1.9.5 2.8.8c1.9.5 3.7 1 5.5 1.5.9.2 1.8.5 2.7.7s1.8.4 2.6.6c1.7.4 3.4.7 5.1 1.1-2.7.3-5.2.8-7.7 1.5-2.4.6-4.7 1.2-6.9 2.1-4.3 1.6-8.2 3.6-11.4 5.6-6.4 3.8-10.4 8-11 9.7 0 0 1.1.7 2.9 1.8 1.8 1 4.4 2.4 7.5 3.3s6.7 1.6 10.3 1.7c1.8 0 3.7-.3 5.5-.7 1.8-.5 3.6-1.2 5.2-2.2 3.2-1.9 5.5-3.9 7.2-5.9 1.7-1.9 3-4 4-5.8 2-3.7 3.3-6.8 6.2-8.8 2.6.4 5 .8 7.2 1.1 2.2.2 4.3.4 6.2.6 3.7.3 6.6.6 8.6.7-5.1 1.4-9.6 3.3-13.7 5.7-2 1.2-3.9 2.3-5.6 3.5-1.7 1.2-3.3 2.4-4.7 3.6-5.7 4.9-8.9 9.6-9.2 11.3 0 0 4.6 2.2 11 3.3.8.1 1.6.3 2.5.3.4 0 .8.1 1.3.1h1.4c1.8 0 3.7-.1 5.6-.4 1.9-.3 3.7-.8 5.5-1.5.9-.4 1.7-.8 2.6-1.2.4-.2.8-.5 1.2-.8s.8-.5 1.1-.9c5.1-5 14.6-24.6 14.6-25.5 0-1.7-8.1-21.3-13.1-26.6-.3-.3-.6-.7-.9-1s-.5-.6-.8-.9c-.5-.6-1.1-1.1-1.7-1.6-1.1-1-2.3-1.7-3.5-2.3s-2.4-1-3.6-1.2c-.6-.1-1.2-.3-1.8-.4l-1.8-.3c-4.8-.6-8.8.3-8.8.3-.3 1.7.5 7 3.6 13.1.8 1.5 1.8 3.1 2.9 4.7 1.1 1.6 2.4 3.2 3.9 4.7 3 2.9 6.8 5.7 11.5 7.9-2-.2-4.8-.4-8.3-.7-1.8-.2-3.7-.3-5.8-.5-2.1-.3-4.4-.6-6.8-1-2-2.7-2.2-6-2.7-10.1-.3-2-.7-4.2-1.4-6.6-.6-2.8-1.7-5.5-3.3-8.3z"/><circle class="nst0" cx="277.9" cy="286.5" r="9"/></symbol></svg>