<?xml version="1.0" standalone="no"?>
<!DOCTYPE svg PUBLIC "-//W3C//DTD SVG 20010904//EN"
 "http://www.w3.org/TR/2001/REC-SVG-20010904/DTD/svg10.dtd">
<svg version="1.0" xmlns="http://www.w3.org/2000/svg"
 width="260.000000pt" height="260.000000pt" viewBox="0 0 260.000000 260.000000"
 preserveAspectRatio="xMidYMid meet">
<metadata>
Created by potrace 1.11, written by Peter Selinger 2001-2013
</metadata>
<g transform="translate(0.000000,260.000000) scale(0.100000,-0.100000)"
fill="#000000" stroke="none">
<path d="M773 2141 c-12 -6 -30 -22 -40 -38 -17 -25 -18 -74 -21 -809 -2 -515
1 -790 8 -808 17 -46 68 -60 179 -48 85 9 97 12 119 38 l24 28 -3 262 c-4 246
-3 263 15 283 13 14 31 21 55 21 34 0 50 -14 266 -233 244 -247 379 -371 423
-388 35 -14 218 -24 266 -15 44 8 71 44 62 81 -4 14 -30 43 -59 66 -97 76
-253 224 -288 271 -19 26 -110 118 -203 205 -126 116 -174 168 -188 201 -37
84 -43 76 338 458 209 210 347 356 351 372 5 19 1 30 -18 45 -21 17 -34 18
-139 12 -190 -11 -156 11 -484 -320 -160 -161 -301 -296 -313 -300 -35 -10
-63 4 -78 38 -10 24 -12 82 -8 247 6 251 0 284 -57 312 -41 20 -176 32 -207
19z"/>
</g>
</svg>
