<?xml version="1.0" encoding="utf-8"?><svg xmlns="http://www.w3.org/2000/svg" xmlns:xlink="http://www.w3.org/1999/xlink"><symbol viewBox="0 0 17 23" id="cart" xmlns="http://www.w3.org/2000/svg"><defs><path id="aa" d="M1358 40.38h-14.6V24.52h4.1V23.2c0-1.21 1.02-2.2 2.28-2.2h1.83c1.26 0 2.28.99 2.28 2.2v1.32h4.11zm-5.02-17.18c0-.73-.61-1.32-1.37-1.32h-1.83c-.75 0-1.37.6-1.37 1.32v1.32h4.57zm4.1 2.2h-3.19v1.77h-.91V25.4h-4.57v1.76h-.9V25.4h-3.2v14.1h12.78z"/></defs><g transform="translate(-1342 -19)"><use xlink:href="#aa"/><use xlink:href="#aa"/></g></symbol><symbol viewBox="0 0 13 22" id="facebook" xmlns="http://www.w3.org/2000/svg"><defs><path id="ba" d="M739.31 4495.41v2h3.16l-.4 3.6h-2.76v9.99h-4.34v-10H733v-3.6h1.97v-1.99s-.35-3.81 3.16-4.4h4.34v3.2h-1.97s-1.13-.04-1.19 1.2z"/></defs><g transform="translate(-731 -4490)"><use xlink:href="#ba"/><use xlink:href="#ba"/></g></symbol><symbol viewBox="0 0 23 22" id="instagram" xmlns="http://www.w3.org/2000/svg"><defs><path id="ca" d="M825.71 4511H813.1a3.57 3.57 0 0 1-3.55-3.6v-12.79c0-1.99 1.59-3.6 3.55-3.6h12.62a3.57 3.57 0 0 1 3.55 3.6v12.8c0 1.98-1.59 3.59-3.55 3.59zm-11.44-2h10.26a2.78 2.78 0 0 0 2.76-2.8v-7.2h-2.71a5.56 5.56 0 0 1-5.17 7.59 5.56 5.56 0 0 1-5.17-7.58h-2.73v7.2c0 1.54 1.24 2.8 2.76 2.8zm12.64-12.4v-3.19h-3.16v3.19zm-10.66 4.42c0 1.76 1.41 3.2 3.16 3.2a3.18 3.18 0 0 0 3.15-3.2c0-1.77-1.41-3.2-3.15-3.2a3.18 3.18 0 0 0-3.16 3.2z"/></defs><g transform="translate(-808 -4490)"><use xlink:href="#ca"/><use xlink:href="#ca"/></g></symbol><symbol viewBox="0 0 19 22" id="pinterest" xmlns="http://www.w3.org/2000/svg"><defs><path id="da" d="M860.04 4502.2s.53 1.08 1.57 1.2c1.05.13 3.89-1.81 3.95-5.2.06-3.37-.63-4.35-3.55-5.19-2.95-.85-5.4.6-6.31 3.2-1.04 2.95-.2 3.66.39 4.4l-.4 2s-2.82-.98-2.76-4c.07-3.03 1.77-7.6 7.9-7.6 6.05 0 7.53 5.87 7.1 8-.43 2.13-.77 5-5.13 6 0 0-2.56.67-3.41-1.21a30.18 30.18 0 0 1-1.33 4.4c-.68 1.2-1.97 2.79-1.97 2.79s.37-3.6.4-4.39c.03-1.22 1.18-6.8 1.18-6.8s-1.08-3.9 1.58-4.39c0 0 2.15-.52 1.57 2.4 0 0-.43 1.92-.97 4.12z"/></defs><g transform="translate(-851 -4490)"><use xlink:href="#da"/><use xlink:href="#da"/></g></symbol><symbol viewBox="0 0 23 25" id="twitter" xmlns="http://www.w3.org/2000/svg"><defs><path id="ea" d="M786.65 4495.41l2-.4s-1.67 1.9-2 2c-.05.92 0 1.2 0 1.2-3.8 16.48-17.76 9.2-17.76 9.2 5.08.13 5.53-2 5.53-2-2.97-.46-3.55-2.4-3.55-2.4 1.02.46 1.58-.4 1.58-.4-3.21-.85-2.76-4-2.76-4 .54.5 1.41.68 1.94.75-.37-.42-3.37-4.06-1.55-5.95 0 0 2.2 4 8 4.37l.38-.1a4.17 4.17 0 0 1 4.05-5.07c2.76 0 3.36 1.6 3.36 1.6l1.97-1.2s-.22 2-1.19 2.4z"/></defs><g transform="translate(-767 -4491)"><use xlink:href="#ea"/><use xlink:href="#ea"/></g></symbol></svg>