<?xml version="1.0" encoding="utf-8"?><svg xmlns="http://www.w3.org/2000/svg" xmlns:xlink="http://www.w3.org/1999/xlink"><symbol viewBox="0 0 160 118.194" id="arrow" xmlns="http://www.w3.org/2000/svg"><path data-name="Path 130" class="acls-1" d="M160 91.215L101.727 70.06l-8.344 14.056c-15.062-.071-29.071-1.633-40.8-4.544-12.775-3.159-22.48-7.812-28.32-13.454-5.489-5.289-7.509-11.253-6.1-17.394 1.269-5.679 5.529-11.464 12.072-16.864 6.06-5.005 14.1-9.691 23.494-13.809A194.689 194.689 0 0183.15 8.15a257.047 257.047 0 0131.706-5.964A269.426 269.426 0 01130.797.624c5.27-.355 10.539-.568 15.765-.6-5.137-.074-10.407.036-15.764.317s-10.8.71-16.248 1.278a282.465 282.465 0 00-33.2 5.608 234.748 234.748 0 00-32.5 9.939c-5.27 2.094-10.32 4.331-14.975 6.745A116.094 116.094 0 0020.53 31.86a72.453 72.453 0 00-10.847 9.126 39.054 39.054 0 00-7.246 10.152c-3.557 7.384-3.293 14.838 1.274 21.76C8.673 80.388 18.55 86.991 33.05 91.89a154.367 154.367 0 0025.646 6 228.241 228.241 0 0025.154 2.306l-10.759 18z"/></symbol><symbol fill="none" viewBox="0 0 32 32" id="icon-basket" xmlns="http://www.w3.org/2000/svg"><g clip-path="url(#bclip0)"><path d="M32 12h-5.434l-5.708-9.515a1 1 0 00-1.715 1.03L24.233 12H7.767l5.091-8.485a1 1 0 10-1.714-1.03L5.433 12H0v2h2.17l2.54 13.552A3.001 3.001 0 007.66 30h16.68a3 3 0 002.948-2.447L29.83 14H32v-2zm-6.678 15.185a.999.999 0 01-.982.815H7.66a1 1 0 01-.983-.816L4.205 14h23.59l-2.473 13.185z" fill="#fff"/></g><defs><clipPath id="bclip0"><path fill="#fff" d="M0 0h32v32H0z"/></clipPath></defs></symbol><symbol fill="none" viewBox="0 0 120 35" id="logo" xmlns="http://www.w3.org/2000/svg"><path fill-rule="evenodd" clip-rule="evenodd" d="M0 22.583c-.01.364.144.718.43.984.287.266.682.423 1.1.438h.064c.211 0 .42-.037.615-.108.195-.07.372-.175.52-.306.148-.13.265-.286.344-.457a1.23 1.23 0 00.114-.538v-8.963c0-3.608 2.51-5.377 5.536-5.377 3.107 0 5.576 1.804 5.576 5.377v8.95c-.01.364.144.718.43.984.287.266.682.423 1.1.438h.048c.211 0 .42-.037.615-.108.195-.07.372-.175.52-.306.148-.13.265-.286.344-.457.078-.17.117-.354.114-.538v-8.894c0-5.03-3.704-8.013-8.364-8.013a9.112 9.112 0 00-3.218.547 8.19 8.19 0 00-2.701 1.618V7.16c0-.368-.168-.721-.467-.981a1.72 1.72 0 00-1.126-.407c-.416 0-.815.142-1.113.394a1.31 1.31 0 00-.48.96v15.47-.013zm31.207 1.491c5.975 0 10.475-4.058 10.475-9.192s-4.5-9.193-10.475-9.193c-1.386 0-2.758.238-4.039.7a10.776 10.776 0 00-3.424 1.993 9.221 9.221 0 00-2.288 2.982 8.173 8.173 0 00-.804 3.518c0 1.207.273 2.402.804 3.518a9.22 9.22 0 002.288 2.982c.98.853 2.143 1.53 3.424 1.992 1.28.463 2.653.7 4.04.7zm0-2.567c-4.102 0-7.289-2.983-7.289-6.625 0-3.643 3.187-6.626 7.29-6.626 4.102 0 7.248 2.949 7.248 6.626 0 3.677-3.146 6.625-7.249 6.625zm23.424 2.567c5.975 0 10.475-4.058 10.475-9.192s-4.5-9.193-10.475-9.193c-1.386 0-2.758.238-4.039.7a10.777 10.777 0 00-3.424 1.993 9.223 9.223 0 00-2.288 2.982 8.174 8.174 0 00-.804 3.518c0 1.207.273 2.402.804 3.518a9.222 9.222 0 002.288 2.982c.98.853 2.143 1.53 3.424 1.992 1.28.463 2.653.7 4.04.7zm0-2.567c-4.102 0-7.289-2.983-7.289-6.625 0-3.643 3.187-6.626 7.29-6.626 4.102 0 7.248 2.949 7.248 6.626 0 3.677-3.146 6.625-7.249 6.625zM71.5 22.583c-.01.364.144.718.43.984.286.266.681.423 1.1.438h.063c.212 0 .42-.037.616-.108.195-.07.371-.175.52-.306.148-.13.265-.286.343-.457.079-.17.118-.354.115-.538V8.603h4.58c.193 0 .384-.032.563-.096.178-.064.34-.158.477-.276.137-.119.246-.26.32-.415.075-.155.113-.321.114-.49a1.18 1.18 0 00-.405-.896c-.266-.24-.63-.38-1.013-.387H66.879c-.193 0-.384.032-.563.096-.178.064-.34.158-.478.276-.136.119-.245.26-.32.415a1.138 1.138 0 00-.113.49c.006.338.164.662.439.901.275.24.646.377 1.035.382h4.62v13.98zm11.503 0c-.01.364.144.718.43.984.286.266.681.423 1.1.438h.063c.212 0 .42-.037.615-.108.195-.07.372-.175.52-.306.149-.13.265-.286.344-.457.079-.17.118-.354.114-.538V8.603h3.744c2.23 0 3.625 1.353 3.625 3.018 0 1.665-1.434 3.018-3.585 3.018h-.478c-.2 0-.4.034-.584.101a1.557 1.557 0 00-.496.29c-.142.123-.254.27-.33.431a1.18 1.18 0 00-.115.53c-.005.356.136.7.398.972l6.333 6.522c.138.163.318.295.525.385.208.09.438.137.67.135.304.002.602-.072.859-.213.257-.14.462-.343.592-.582.13-.239.178-.505.14-.768a1.306 1.306 0 00-.356-.713l-4.7-4.822c.22-.049.434-.119.637-.208 1.315-.559 2.372-1.49 2.998-2.643a4.953 4.953 0 00.443-3.695c-.339-1.24-1.152-2.342-2.306-3.126-1.154-.783-2.58-1.201-4.043-1.185h-5.576a1.757 1.757 0 00-.596.088c-.19.063-.364.158-.512.28a1.37 1.37 0 00-.35.43 1.206 1.206 0 00-.135.59l.012 15.145zm17.593 0c-.011.364.143.718.43.984.286.266.681.423 1.099.438h.064c.211 0 .42-.037.615-.108a1.62 1.62 0 00.52-.306c.148-.13.265-.286.344-.457.079-.17.117-.354.114-.538V7.16c0-.368-.168-.721-.466-.981a1.721 1.721 0 00-1.127-.407c-.416 0-.815.142-1.113.394a1.311 1.311 0 00-.48.994v15.423zm1.593-19.114a2.18 2.18 0 001.399-.516c.372-.324.584-.76.593-1.218 0-.46-.21-.902-.584-1.227A2.15 2.15 0 00102.188 0a2.231 2.231 0 00-.757.123c-.24.084-.459.209-.644.367a1.723 1.723 0 00-.434.554c-.101.207-.154.43-.156.656a.052.052 0 000 .035c0 .46.209.9.583 1.226.373.325.88.508 1.408.508zm5.146 16.304c0 2.255 2.868 4.301 6.333 4.301 3.625 0 6.333-2.359 6.333-5.099 0-3.26-2.589-4.475-5.098-5.134-2.35-.66-4.262-1.284-4.262-3.122-.013-.669.279-1.315.812-1.797s1.264-.76 2.032-.773h.223a3.765 3.765 0 012.048.506c.603.356 1.058.872 1.298 1.47.064.28.239.53.494.707.255.178.573.271.9.265.187.001.373-.03.547-.092.173-.062.331-.153.465-.268.133-.115.239-.252.311-.402.072-.151.11-.313.111-.476 0-2.36-2.828-4.163-6.174-4.163-3.545 0-6.134 2.185-6.134 5.03 0 3.434 2.788 4.37 5.536 5.169 2.111.624 3.705 1.422 3.705 3.156 0 1.319-1.235 2.533-3.147 2.533a3.966 3.966 0 01-2.205-.586c-.641-.402-1.112-.976-1.34-1.635a1.301 1.301 0 00-.625-.665 1.617 1.617 0 00-.971-.155 1.49 1.49 0 00-.856.428 1.151 1.151 0 00-.336.809v-.007zM42.961 34.529c8.086 0 13.104-3.156 13.98-3.711.242-.145.442-.336.587-.559.145-.222.23-.47.25-.725a1.14 1.14 0 00-.099-.495 1.279 1.279 0 00-.309-.424 1.493 1.493 0 00-.471-.289 1.663 1.663 0 00-.563-.11h-.032c-.33.013-.648.11-.916.278-3.685 2.126-8.007 3.26-12.427 3.26s-8.742-1.134-12.427-3.26a1.85 1.85 0 00-.916-.278c-.392.002-.768.14-1.044.382a1.21 1.21 0 00-.43.912v.024c.023.255.11.502.254.723.145.222.343.414.583.56.876.556 5.934 3.712 13.98 3.712z" fill="#fff"/></symbol></svg>