<svg xmlns="http://www.w3.org/2000/svg" xmlns:xlink="http://www.w3.org/1999/xlink" width="23" height="22" viewBox="0 0 23 22"><defs><path id="a" d="M825.71 4511H813.1a3.57 3.57 0 0 1-3.55-3.6v-12.79c0-1.99 1.59-3.6 3.55-3.6h12.62a3.57 3.57 0 0 1 3.55 3.6v12.8c0 1.98-1.59 3.59-3.55 3.59zm-11.44-2h10.26a2.78 2.78 0 0 0 2.76-2.8v-7.2h-2.71a5.56 5.56 0 0 1-5.17 7.59 5.56 5.56 0 0 1-5.17-7.58h-2.73v7.2c0 1.54 1.24 2.8 2.76 2.8zm12.64-12.4v-3.19h-3.16v3.19zm-10.66 4.42c0 1.76 1.41 3.2 3.16 3.2a3.18 3.18 0 0 0 3.15-3.2c0-1.77-1.41-3.2-3.15-3.2a3.18 3.18 0 0 0-3.16 3.2z"/></defs><g transform="translate(-808 -4490)"><use fill="#ffb46c" xlink:href="#a"/><use fill="#fff" xlink:href="#a"/></g></svg>