<svg xmlns="http://www.w3.org/2000/svg" xmlns:xlink="http://www.w3.org/1999/xlink" width="19" height="22" viewBox="0 0 19 22"><defs><path id="a" d="M860.04 4502.2s.53 1.08 1.57 1.2c1.05.13 3.89-1.81 3.95-5.2.06-3.37-.63-4.35-3.55-5.19-2.95-.85-5.4.6-6.31 3.2-1.04 2.95-.2 3.66.39 4.4l-.4 2s-2.82-.98-2.76-4c.07-3.03 1.77-7.6 7.9-7.6 6.05 0 7.53 5.87 7.1 8-.43 2.13-.77 5-5.13 6 0 0-2.56.67-3.41-1.21a30.18 30.18 0 0 1-1.33 4.4c-.68 1.2-1.97 2.79-1.97 2.79s.37-3.6.4-4.39c.03-1.22 1.18-6.8 1.18-6.8s-1.08-3.9 1.58-4.39c0 0 2.15-.52 1.57 2.4 0 0-.43 1.92-.97 4.12z"/></defs><g transform="translate(-851 -4490)"><use fill="#ffb46c" xlink:href="#a"/><use fill="#fff" xlink:href="#a"/></g></svg>