<svg xmlns="http://www.w3.org/2000/svg" xmlns:xlink="http://www.w3.org/1999/xlink" width="23" height="25" viewBox="0 0 23 25"><defs><path id="a" d="M786.65 4495.41l2-.4s-1.67 1.9-2 2c-.05.92 0 1.2 0 1.2-3.8 16.48-17.76 9.2-17.76 9.2 5.08.13 5.53-2 5.53-2-2.97-.46-3.55-2.4-3.55-2.4 1.02.46 1.58-.4 1.58-.4-3.21-.85-2.76-4-2.76-4 .54.5 1.41.68 1.94.75-.37-.42-3.37-4.06-1.55-5.95 0 0 2.2 4 8 4.37l.38-.1a4.17 4.17 0 0 1 4.05-5.07c2.76 0 3.36 1.6 3.36 1.6l1.97-1.2s-.22 2-1.19 2.4z"/></defs><g transform="translate(-767 -4491)"><use fill="#ffb46c" xlink:href="#a"/><use fill="#fff" xlink:href="#a"/></g></svg>