<svg version="1" xmlns="http://www.w3.org/2000/svg" width="1130.667" height="1130.667" viewBox="0 0 848.000000 848.000000"><path d="M306.6 164.9c-1.5 2.3-3.4 5.7-4.3 7.6-.9 1.9-2 3.5-2.5 3.5-.4 0-.8.4-.8.9 0 .7-4.6 8.9-10.5 18.9-.6.9-3.7 6.3-7 12s-7.4 12.6-9.1 15.5c-11 18.6-20.4 35-20.4 35.8 0 .5-.4.9-.9.9s-1.1.8-1.5 1.7c-.3 1-1 2.5-1.6 3.3-1 1.5-11.4 19.2-15.3 26-1.1 1.9-2.7 4.7-3.6 6.2-3.6 6-16.6 28.4-17.7 30.3-.9 1.8-11 18.7-13.4 22.5-.5.8-1.8 3.1-2.8 5-5.4 9.6-51.3 87.7-52.2 88.7-.5.7-1 1.5-1 1.8 0 .3-3.7 6.7-8.1 14.2C117.4 487.6 116 490 116 491c0 .6-.4 1-.9 1s-1.1.8-1.5 1.7c-.3 1-1.7 3.6-3 5.8-1.3 2.2-3.1 5.1-3.8 6.5-3.1 5.3-29.4 50.1-35.6 60.5-3.6 6-7.4 12.6-8.5 14.5-1.1 1.9-2.8 4.8-3.8 6.5-1.1 1.6-2.2 3.7-2.6 4.5-.3.8-2.4 4.2-4.5 7.6-2.1 3.4-3.8 6.4-3.8 6.8 0 .9-5.2 8.9-6.3 9.7-.5.3-.8.9-.8 1.3.2.7-5.5 10.7-12.1 21.3-2.1 3.4-3.8 6.5-3.8 6.8 0 .4-1.3 2.6-3 5-2 2.9-2.5 4.4-1.7 4.7 1.7.5 807.6.3 808.1-.3.2-.2-2-4.4-5-9.2-3-4.8-5.4-9.2-5.4-9.8 0-.5-.4-.9-1-.9-.5 0-1-.4-1-.9s-2.7-5.5-6-11c-3.3-5.6-6-10.6-6-11.1 0-.6-.4-1-1-1-.5 0-1-.4-1-1 0-.5-2.7-5.4-6-10.8-3.3-5.5-6-10.3-6-10.6 0-.4-.5-1.2-1-1.9-1-1.1-11.7-19.1-18.8-31.7-1.4-2.5-5.1-8.8-8.2-14-3.2-5.2-6.6-11.1-7.7-13-1.1-1.9-10.2-17.4-20.2-34.4-9.9-16.9-18.1-31.2-18.1-31.7s-.4-.9-1-.9c-.5 0-.9-.3-.8-.8.2-.7-1.7-4-5.3-9.4-1.1-1.5-1.9-3-1.9-3.2 0-.3-1.8-3.5-4-7.1-2.2-3.6-4-6.8-4-7.1 0-.3-.8-1.8-1.9-3.2-1-1.5-2.8-4.3-3.9-6.2-2.6-4.7-8.8-15.3-27.7-47.5-8.7-14.9-16.4-28-16.9-29.2-.6-1.3-1.4-2.3-1.8-2.3-.5 0-.8-.4-.8-1 0-.5-2.5-5-5.5-10s-5.5-9.3-5.5-9.5c0-.3-1.6-2.9-3.5-5.9-1.9-3-3.5-5.7-3.5-6 0-.3-1.5-2.9-3.2-5.9-1.8-2.9-3.8-6.1-4.5-7.2-1.6-2.6-7.1-12.1-9.4-16.1-.9-1.7-2.3-4.2-3.1-5.5-.7-1.3-1.6-2.6-1.9-2.9-.3-.3-1.9-3-3.6-6-4.1-7.4-23.3-40.2-24.3-41.5-.5-.6-2.3-3.7-4.1-7-1.8-3.3-4.4-7.8-5.7-10-1.4-2.2-2.4-4.1-2.1-4.1.2-.1-.3-1-1.2-2-.9-1.1-3.1-4.6-4.9-7.9-1.9-3.3-3.6-6.2-3.9-6.5-.3-.3-1.5-2.2-2.6-4.2-3.1-5.8-12.7-22.2-13.8-23.6-.9-1.2-6.7 7.6-17.2 26.4-4.5 8.1-5 8.9-5.5 9.4-1.1 1-10 17-10 17.9 0 .5-.4 1.1-.8 1.3-.8.3-3.6 4.9-8.5 13.8-1.6 3-3.6 6.2-4.3 7.1-.8.8-1.4 1.8-1.4 2.2 0 .3-3.1 5.8-7 12.2-3.8 6.4-7 12-7 12.5 0 .6-.3 1-.7 1-.5 0-1.3 1-1.9 2.3-.6 1.2-4.4 7.9-8.5 15-4.1 7-7.9 13.5-8.4 14.5-1.7 3-12.5 21.2-19.9 33.7-8.1 13.8-11.2 19.1-12.8 22.3-1.1 2.2-2.9 2.6-3 .7-.1-.6-2-3.9-4.3-7.5s-5.5-9-7.2-12c-1.6-3-7.1-12.4-12.2-20.9-5-8.4-9.1-15.5-9.1-15.7 0-.2-1.8-3.2-4-6.6-2.2-3.5-4-6.9-4-7.6 0-.6-.4-1.2-1-1.2-.5 0-1.2-1.1-1.6-2.5-.3-1.4-1-2.5-1.4-2.5-.4 0-1-.8-1.3-1.8-.4-.9-1.9-3.8-3.4-6.3-1.5-2.6-7.7-13.1-13.8-23.4-6-10.2-11.7-19.9-12.6-21.3-.9-1.5-2.7-4.7-4.1-7.2-1.4-2.5-9.2-15.7-17.3-29.5-8-13.7-15-25.6-15.5-26.4-.6-1.1-1.4-.4-3.4 2.8zm6.1 133.3c1.7 2.9 4 6.9 5.1 8.8 1.1 1.9 4.7 8.1 8.1 13.8 3.3 5.6 6.1 10.7 6.1 11.2 0 .6.5 1 1 1 .6 0 1 .5 1 1 0 1.1 10.1 18.4 12 20.7.5.7 1 1.5 1 1.8 0 .3 1.8 3.5 4 7.1 2.2 3.6 4 6.8 4 7 0 .3 1.8 3.3 3.9 6.7 5.8 9.3 9.1 15 9.8 16.9.3 1 .9 1.8 1.4 1.8.5 0 .9.4.9 1 0 .5 2.6 5.4 5.8 10.7 9.3 15.8 8.9 14.2 5.2 20.4-1.7 3-3.5 6.1-4 6.9-4.5 7.1-12 20.4-12 21.1 0 .5-.4.9-1 .9-.5 0-1 .5-1 1 0 .6-3.6 7.1-8 14.4-4.4 7.4-8 13.7-8 14.1 0 .4-.9 1.9-1.9 3.4-1.7 2.3-9.2 15-13.5 22.6-1.1 1.9-7 11.9-24.5 41.5-4.7 8-8.4 14.8-8.3 15.2.1.5-.2.8-.8.8-.5 0-1 .4-1 .9 0 .4-2.4 4.8-5.4 9.7l-5.3 8.9h-74.9c-41.2.1-75.4-.1-76-.3-1.1-.3 7.2-16.3 8.8-17 .4-.2.8-.8.8-1.3 0-.8 4.4-8.4 17.8-30.9 2.5-4.1 5.6-9.5 7-12 1.4-2.5 3.6-6.2 4.9-8.2 1.2-2.1 2.3-4.2 2.3-4.8 0-.5.5-1 1-1 .6 0 1-.4 1-.9s4.1-7.9 9.1-16.3 10.1-17.1 11.4-19.3c1.2-2.2 4.5-7.7 7.1-12.3 2.7-4.6 6.2-10.7 7.8-13.5 1.6-2.9 3.2-5.4 3.5-5.7.3-.3 1.1-1.4 1.7-2.5 3.2-5.8 8.3-14.7 31.4-54 13.9-23.7 32.3-55 40.9-69.7 8.6-14.7 15.8-26.8 16.1-26.8.3 0 1.9 2.4 3.7 5.2zm235.3 9.3c4.7 8 9 15.4 9.5 16.3.6 1 4.4 7.5 8.5 14.5s8 13.6 8.5 14.6c.6 1 1.7 2.6 2.4 3.5.7.9 1.1 1.6.8 1.6-.4 0 .5 1.6 1.8 3.6 1.3 1.9 2.7 4.4 3 5.5.4 1 1.1 1.9 1.6 1.9s.9.5.9 1c0 .6 2 4.3 4.3 8.3 2.4 3.9 10.8 18.2 18.7 31.7 7.8 13.5 16.3 27.9 18.8 32 2.5 4.1 5.6 9.5 7 12 2.4 4.3 5.2 9.2 7.9 13.5 1.4 2.4 12.8 21.7 15.3 26 .9 1.6 6.4 10.9 12 20.5 5.7 9.6 10.8 18.5 11.4 19.7.6 1.3 1.4 2.3 1.9 2.3.4 0 .7.6.7 1.2 0 .7 1.8 4.1 4 7.6 2.2 3.4 4 6.4 4 6.6 0 .3 13.3 23 15 25.6.6.8 1.6 2.6 2.2 4 .7 1.4 1.5 2.7 1.9 3 .6.5 2.1 4.2 2 5-.1.7-148.4.7-150.6-.1-1.1-.4-3.1-2.9-4.5-5.6-1.3-2.6-2.7-5-3.1-5.3-.3-.3-1.7-2.5-3.1-5-3.7-6.7-16.8-29.2-19.7-34-5.2-8.5-13.1-22.1-13.1-22.5 0-.3-.8-1.8-1.9-3.3-2.1-3-13.7-22.6-17.7-29.9-1.5-2.6-3.3-5.5-4-6.4-.8-.8-1.4-1.9-1.4-2.3 0-.3-2.7-5.1-6-10.5-3.3-5.5-6-10.2-6-10.5 0-.4-.8-1.9-1.9-3.4-3.4-4.9-12.1-20.2-12.1-21.2 0-.6-.3-1-.8-1-.4 0-1.3-1.3-2-3-1.4-3-.6-4.9 6.7-17 7.7-12.6 13.1-22.1 13.1-23 0-.5.3-1 .8-1 .4 0 1.2-1 1.8-2.3.6-1.2 5.7-10.1 11.4-19.7 10.4-17.7 12.3-21.1 16.1-27.7 1.1-2 3.1-5.2 4.5-7.2 1.3-2 2.4-3.9 2.4-4.3 0-.5 1.5-3.2 3.3-6.1 4.1-6.5 4.7-7.5 9.7-16.5 2.3-3.9 4.4-7.2 4.8-7.2.4 0 4.5 6.5 9.2 14.5zM431.1 500.1c1 1.5 1.9 2.9 1.9 3.2 0 .3 1.8 3.5 4.1 7.2 2.2 3.7 4.9 8.2 5.9 9.9 9.8 17.3 29.5 50.3 30.4 50.8.6.4.8.8.3.8-.4 0 1.5 3.7 4.3 8.1 2.8 4.5 4.8 8.4 4.6 8.7-.7.6-117.6.9-117.6.2 0-.3 1.6-3.1 3.5-6.3 1.9-3.2 3.5-6.2 3.5-6.8 0-.5.4-.9.9-.9s1.5-1.6 2.2-3.5c.7-1.9 1.7-3.5 2.1-3.5.4 0 .8-.4.8-.9 0-.9 6.3-11.8 8-13.8.5-.7 1-1.4 1-1.7 0-1 18.4-32.1 19.2-32.4.4-.2.8-.7.8-1.2 0-.4 3-5.9 6.7-12.1 3.6-6.3 7.1-12.3 7.7-13.4 2.6-4.6 2.7-4.6 5.3.2 1.3 2.6 3.3 6 4.4 7.4z"/></svg>