<svg id="Слой_1" xmlns="http://www.w3.org/2000/svg" viewBox="0 0 156.8 59.8"><style>.st0{enable-background:new}.st1{fill:#fff}.st2{fill:#ffc61a}</style><g class="st0"><path class="st1" d="M5.5 40.8H2.2l-.7 2H0l3.2-8.5h1.3l3.2 8.5H6.2l-.7-2zm-2.9-1.2h2.5l-1.2-3.5-1.3 3.5zM15.9 39.7c0 1-.2 1.8-.7 2.3s-1 .9-1.8.9c-.7 0-1.3-.2-1.7-.7v3h-1.4v-8.8h1.3l.1.6c.4-.5 1-.8 1.7-.8.8 0 1.4.3 1.8.9s.7 1.5.7 2.6zm-1.4-.1c0-.6-.1-1.1-.4-1.5s-.6-.6-1.1-.6c-.6 0-1 .2-1.3.7V41c.3.5.7.7 1.3.7.5 0 .8-.2 1.1-.5s.4-.9.4-1.6zM21.9 42.9c-.9 0-1.6-.3-2.2-.9s-.8-1.3-.8-2.3v-.2c0-.6.1-1.2.4-1.7s.6-.9 1-1.2.9-.4 1.5-.4c.9 0 1.5.3 2 .8s.7 1.3.7 2.3v.6h-4.1c0 .5.2.9.5 1.2s.7.5 1.2.5c.7 0 1.2-.3 1.6-.8l.8.7c-.3.4-.6.7-1 .9s-1.1.5-1.6.5zm-.2-5.4c-.4 0-.7.1-.9.4s-.4.7-.5 1.1H23v-.1c0-.5-.2-.8-.4-1.1s-.5-.3-.9-.3zM32.9 42.8h-1.4v-2.6H29v2.6h-1.4v-6.3H29v2.6h2.5v-2.6h1.4v6.3zM36.4 41.7c.4-.4.7-.9.8-1.3s.2-.9.2-1.5l.1-2.4h4.4v5.2h.9v3h-1.4v-1.9h-4.1v1.9h-1.4v-3h.5zm1.7 0h2.4v-4h-1.6v1.2c-.1 1.2-.4 2.1-.8 2.8zM49.6 42.8c-.1-.1-.1-.3-.2-.6-.5.5-1 .7-1.7.7-.6 0-1.2-.2-1.6-.5s-.6-.8-.6-1.3c0-.7.3-1.2.8-1.6s1.2-.5 2.2-.5h.9v-.4c0-.3-.1-.6-.3-.8s-.5-.3-.8-.3c-.3 0-.6.1-.8.2s-.3.4-.3.6h-1.4c0-.3.1-.7.3-1s.5-.5.9-.7.8-.3 1.3-.3c.7 0 1.3.2 1.8.6s.7.9.7 1.6v2.9c0 .6.1 1 .2 1.4v.1h-1.4zm-1.6-1c.3 0 .5-.1.8-.2s.4-.3.6-.6v-1.2h-.8c-.5 0-.9.1-1.2.3s-.4.4-.4.8c0 .3.1.5.3.7s.4.2.7.2zM63.1 42.8c-.1-.1-.1-.3-.2-.6-.5.5-1 .7-1.7.7-.6 0-1.2-.2-1.6-.5s-.6-.8-.6-1.3c0-.7.3-1.2.8-1.6S61 39 62 39h.9v-.4c0-.3-.1-.6-.3-.8s-.5-.3-.8-.3c-.3 0-.6.1-.8.2s-.3.4-.3.6h-1.4c0-.3.1-.7.3-1s.5-.5.9-.7.8-.3 1.3-.3c.7 0 1.3.2 1.8.6s.7.9.7 1.6v2.9c0 .6.1 1 .2 1.4v.1h-1.4zm-1.6-1c.3 0 .5-.1.8-.2s.4-.3.6-.6v-1.2h-.8c-.5 0-.9.1-1.2.3s-.4.4-.4.8c0 .3.1.5.3.7s.4.2.7.2zM67.9 42.8v-6.3h2.6c.9 0 1.5.2 2 .5s.7.7.7 1.3c0 .3-.1.6-.3.8s-.5.4-.8.5c.4.1.7.3 1 .5s.4.6.4.9c0 .6-.2 1-.7 1.3s-1.1.5-1.9.5h-3zm1.4-3.7h1.2c.8 0 1.2-.2 1.2-.7 0-.5-.4-.8-1.1-.8h-1.2v1.5zm0 1v1.6h1.6c.7 0 1.1-.3 1.1-.8s-.4-.8-1.1-.8h-1.6zM81.5 37.6h-2.1v5.2H78v-5.2h-2v-1.1h5.5v1.1zM84 39.6c0-.6.1-1.2.4-1.7s.6-.9 1-1.1 1-.4 1.5-.4c.9 0 1.5.3 2.1.8s.8 1.3.9 2.2v.3c0 .6-.1 1.2-.4 1.7s-.6.9-1 1.1-1 .4-1.5.4c-.9 0-1.6-.3-2.1-.9s-.9-1.4-.9-2.4zm1.4.1c0 .7.1 1.2.4 1.5s.6.6 1.1.6.9-.2 1.1-.6.4-.9.4-1.6c0-.6-.1-1.1-.4-1.5s-.6-.6-1.1-.6c-.5 0-.8.2-1.1.6s-.4.9-.4 1.6zM96.9 41l1.9-4.6h1.8v6.3h-1.4v-4.2l-1.7 4.2h-1l-1.8-4.2v4.2h-1.4v-6.3H95l1.9 4.6zM103.8 39.6c0-.6.1-1.2.4-1.7s.6-.9 1-1.1 1-.4 1.5-.4c.9 0 1.5.3 2.1.8s.8 1.3.9 2.2v.3c0 .6-.1 1.2-.4 1.7s-.6.9-1 1.1-1 .4-1.5.4c-.9 0-1.6-.3-2.1-.9s-.9-1.4-.9-2.4zm1.5.1c0 .7.1 1.2.4 1.5s.6.6 1.1.6.9-.2 1.1-.6.4-.9.4-1.6c0-.6-.1-1.1-.4-1.5s-.6-.6-1.1-.6c-.5 0-.8.2-1.1.6s-.4.9-.4 1.6zM115.9 36.8c.8 0 1.4.3 1.9.8s.7 1.3.7 2.2v.1c0 .9-.3 1.7-.8 2.2s-1.2.8-2.1.8c-.9 0-1.6-.3-2.1-.9s-.8-1.4-.8-2.4v-.4c0-1.4.2-2.4.7-3.2s1.2-1.3 2.2-1.5c.5-.1.9-.2 1-.3s.2-.3.2-.5h1.1c0 .4-.1.7-.2 1s-.3.4-.6.6-.7.3-1.4.4c-.6.1-1 .3-1.4.7s-.5.8-.6 1.3c.8-.6 1.5-.9 2.2-.9zm-.3 1.2c-.5 0-.8.2-1.1.5s-.4.8-.4 1.4c0 .6.1 1.1.4 1.4s.6.5 1.1.5c.5 0 .8-.2 1.1-.5s.4-.9.4-1.5c0-.5-.1-1-.4-1.3s-.6-.5-1.1-.5zM125.5 36.5h1.4v6.3h-1.4v-4.2l-2.5 4.2h-1.4v-6.3h1.4v4.2l2.5-4.2zM135.8 36.5v6.3h-1.4v-5.2h-1.8l-.1 2.2c-.1 1.1-.3 1.8-.6 2.3s-.8.7-1.5.7h-.4v-1.2h.3c.3 0 .5-.2.7-.6s.2-1 .3-1.8l.1-2.7h4.4zM144.4 36.5v6.3H143v-2.3h-1.3l-1.4 2.3h-1.5l1.5-2.6c-.4-.2-.7-.4-.9-.7s-.3-.7-.3-1c0-.6.2-1.1.7-1.5s1.1-.6 1.8-.6h2.8zm-3.9 2c0 .3.1.5.3.6s.5.2.8.2h1.4v-1.8h-1.3c-.3 0-.6.1-.8.3s-.4.4-.4.7z"/></g><g class="st0"><path class="st1" d="M22.1 57.2h-1.5v-7.3h-3.8v7.3h-1.5v-8.5H22v8.5zM31.3 54.1c0 1-.2 1.8-.7 2.3s-1 .9-1.8.9c-.7 0-1.3-.2-1.7-.7v3h-1.4v-8.8H27l.1.6c.4-.5 1-.8 1.7-.8.8 0 1.4.3 1.8.9s.7 1.5.7 2.6zm-1.4-.1c0-.6-.1-1.1-.4-1.5s-.6-.6-1.1-.6c-.6 0-1 .2-1.3.7v2.8c.3.5.7.7 1.3.7.5 0 .8-.2 1.1-.5s.4-.9.4-1.6zM37.3 57.3c-.9 0-1.6-.3-2.2-.9s-.8-1.3-.8-2.3V54c0-.6.1-1.2.4-1.7s.6-.9 1-1.2.9-.4 1.5-.4c.9 0 1.5.3 2 .8s.7 1.3.7 2.3v.6h-4.1c0 .5.2.9.5 1.2s.7.5 1.2.5c.7 0 1.2-.3 1.6-.8l.8.7c-.3.4-.6.7-1 .9s-1.1.4-1.6.4zm-.2-5.4c-.4 0-.7.1-.9.4s-.4.7-.5 1.1h2.7v-.1c0-.5-.2-.8-.4-1.1s-.5-.3-.9-.3zM46.7 55.4l1.9-4.6h1.8v6.3H49V53l-1.7 4.2h-1L44.5 53v4.2H43v-6.3h1.8l1.9 4.5zM57.9 50.9h1.4v6.3h-1.4V53l-2.5 4.2H54v-6.3h1.4v4.2l2.5-4.2zM65 55.2l1.3-4.3h1.5l-2.5 7.3c-.4 1.1-1 1.6-2 1.6-.2 0-.4 0-.7-.1v-1.1h.3c.4 0 .6-.1.8-.2s.3-.4.4-.7l.2-.5-2.2-6.3h1.5l1.4 4.3zM74.4 55.4l1.9-4.6h1.8v6.3h-1.4V53L75 57.2h-1L72.2 53v4.2h-1.4v-6.3h1.8l1.8 4.5zM88.9 54.7h-.7v2.5h-1.4v-6.3h1.4v2.5h.6l1.8-2.5h1.8l-2.3 3 2.5 3.3h-1.9l-1.8-2.5zM100.7 50.9v6.3h-1.4V52h-1.8l-.1 2.2c-.1 1.1-.3 1.8-.6 2.3s-.8.7-1.5.7h-.4V56h.3c.3 0 .5-.2.7-.6s.2-1 .3-1.8l.1-2.7h4.4zM108 57.2c-.1-.1-.1-.3-.2-.6-.5.5-1 .7-1.7.7-.6 0-1.2-.2-1.6-.5s-.5-.8-.5-1.4c0-.7.3-1.2.8-1.6s1.2-.5 2.2-.5h.9v-.4c0-.3-.1-.6-.3-.8s-.5-.3-.8-.3c-.3 0-.6.1-.8.2s-.3.4-.3.6h-1.4c0-.3.1-.7.3-1s.5-.5.9-.7.8-.3 1.3-.3c.7 0 1.3.2 1.8.6s.7.9.7 1.6v2.9c0 .6.1 1 .2 1.4v.1H108zm-1.6-1c.3 0 .5-.1.8-.2s.4-.3.6-.6v-1.2h-.8c-.5 0-.9.1-1.2.3s-.4.4-.4.8c0 .3.1.5.3.7s.4.2.7.2zM115.3 56.2c.4 0 .7-.1.9-.3s.4-.5.4-.8h1.3c0 .4-.1.8-.4 1.1s-.5.6-.9.8-.8.3-1.3.3c-.9 0-1.6-.3-2.1-.9s-.8-1.4-.8-2.4v-.1c0-1 .3-1.7.8-2.3s1.2-.9 2.1-.9c.8 0 1.4.2 1.8.7s.7 1 .7 1.7h-1.3c0-.4-.1-.7-.4-.9s-.5-.4-.9-.4c-.5 0-.8.2-1.1.5s-.4.8-.4 1.5v.2c0 .7.1 1.2.4 1.5s.7.7 1.2.7zM123.5 56.2c.4 0 .7-.1.9-.3s.4-.5.4-.8h1.3c0 .4-.1.8-.4 1.1s-.5.6-.9.8-.8.3-1.3.3c-.9 0-1.6-.3-2.1-.9s-.8-1.4-.8-2.4v-.1c0-1 .3-1.7.8-2.3s1.2-.9 2.1-.9c.8 0 1.4.2 1.8.7s.7 1 .7 1.7h-1.3c0-.4-.1-.7-.4-.9s-.5-.4-.9-.4c-.5 0-.8.2-1.1.5s-.4.8-.4 1.5v.2c0 .7.1 1.2.4 1.5s.8.7 1.2.7zM133 57.2c-.1-.1-.1-.3-.2-.6-.5.5-1 .7-1.7.7-.6 0-1.2-.2-1.6-.5s-.5-.8-.5-1.4c0-.7.3-1.2.8-1.6s1.2-.5 2.2-.5h.9v-.4c0-.3-.1-.6-.3-.8s-.5-.3-.8-.3c-.3 0-.6.1-.8.2s-.3.4-.3.6h-1.4c0-.3.1-.7.3-1s.5-.5.9-.7.8-.3 1.3-.3c.7 0 1.3.2 1.8.6s.7.9.7 1.6v2.9c0 .6.1 1 .2 1.4v.1H133zm-1.6-1c.3 0 .5-.1.8-.2s.4-.3.6-.6v-1.2h-.8c-.5 0-.9.1-1.2.3s-.4.4-.4.8c0 .3.1.5.3.7s.4.2.7.2z"/></g><g class="st0"><path class="st1" d="M31.6 22.8c-.9 1.1-2.3 1.9-4.2 2.5s-3.8 1-6 1c-3.4 0-6-1-8-3.1s-3.1-4.9-3.2-8.6v-2.2c0-2.5.4-4.7 1.3-6.6s2.2-3.3 3.8-4.3S18.9 0 21 0c3.2 0 5.7.7 7.4 2.2s2.8 3.6 3.1 6.5h-5.9c-.2-1.4-.7-2.4-1.4-3.1s-1.7-.9-3-.9c-1.5 0-2.7.7-3.6 2s-1.3 3.2-1.3 5.6v1.5c0 2.6.4 4.5 1.3 5.8s2.2 1.9 4.1 1.9c1.6 0 2.8-.4 3.6-1.1v-4H21v-4.2h10.5v10.6zM51.1 26.3c-2.9 0-5.3-.9-7.1-2.6s-2.7-4-2.7-6.8v-.5c0-1.9.4-3.7 1.1-5.2s1.8-2.6 3.2-3.5 3-1.2 4.9-1.2c2.7 0 4.8.8 6.3 2.5s2.3 4 2.3 6.9v2.3H47.3c.2 1.1.7 1.9 1.4 2.5s1.6.9 2.8.9c1.9 0 3.3-.7 4.4-2l2.7 3.2c-.7 1-1.8 1.8-3.1 2.4s-2.9 1.1-4.4 1.1zm-.7-15.1c-1.7 0-2.8 1.1-3.1 3.4h6v-.5c0-.9-.2-1.7-.7-2.2s-1.3-.7-2.2-.7zM75.4 2.2v4.7h3.1V11h-3.1v8.7c0 .7.1 1.2.4 1.5s.8.4 1.5.4c.6 0 1.1 0 1.5-.1v4.2c-1.1.3-2.2.5-3.3.5-2 0-3.5-.5-4.5-1.4s-1.5-2.4-1.5-4.4V11H67V6.9h2.4V2.2h6z"/></g><g class="st0"><path class="st2" d="M109.4 17.3c-.1 1.8-.6 3.4-1.4 4.7s-2.1 2.4-3.7 3.2-3.4 1.1-5.4 1.1c-3.4 0-6-1.1-7.9-3.3s-3-5.3-3-9.3v-1.3c0-2.5.4-4.7 1.3-6.6s2.1-3.3 3.8-4.4S96.6 0 98.8 0c3.1 0 5.6.8 7.5 2.5s3 3.9 3.2 6.8h-6.2c0-1.6-.4-2.7-1.2-3.4s-1.9-1-3.4-1-2.7.6-3.4 1.7-1.1 3-1.1 5.5v1.8c0 2.7.3 4.7 1 5.9s1.9 1.8 3.5 1.8c1.4 0 2.5-.3 3.3-1s1.1-1.7 1.2-3.2h6.2zM129.8 26c-.2-.4-.4-1-.6-1.7-1.1 1.4-2.6 2.1-4.6 2.1-1.8 0-3.3-.5-4.6-1.6s-1.9-2.4-1.9-4.1c0-2.1.8-3.6 2.3-4.7s3.7-1.6 6.6-1.6h1.8v-1c0-1.8-.8-2.6-2.3-2.6-1.4 0-2.1.7-2.1 2.1h-5.9c0-1.8.8-3.3 2.3-4.5 1.6-1.1 3.6-1.7 6-1.7s4.3.6 5.7 1.8 2.1 2.8 2.2 4.9v8.4c0 1.7.3 3.1.8 4v.2h-5.7zm-3.7-3.9c.7 0 1.4-.2 1.8-.5s.8-.7 1-1.1v-3h-1.7c-2.1 0-3.1.9-3.1 2.8 0 .5.2 1 .5 1.3s.9.5 1.5.5zM156.7 12.3l-2-.1c-1.9 0-3.1.6-3.6 1.8v12h-5.9V7h5.6l.2 2.4c1-1.9 2.4-2.8 4.2-2.8.6 0 1.2.1 1.7.2l-.2 5.5z"/></g></svg>